<?xml version="1.0" standalone="no"?>
<!DOCTYPE svg PUBLIC "-//W3C//DTD SVG 20010904//EN"
 "http://www.w3.org/TR/2001/REC-SVG-20010904/DTD/svg10.dtd">
<svg version="1.0" xmlns="http://www.w3.org/2000/svg"
 width="529.000000pt" height="513.000000pt" viewBox="0 0 529.000000 513.000000"
 preserveAspectRatio="xMidYMid meet">

<g transform="translate(0.000000,513.000000) scale(0.100000,-0.100000)"
fill="#f9813a" stroke="none">
<path d="M2540 5110 c-330 -34 -632 -121 -915 -264 -473 -240 -864 -623 -1111
-1091 l-55 -104 43 -5 c24 -3 87 -7 141 -10 l99 -5 16 31 c479 874 1475 1345
2449 1157 630 -121 1174 -496 1518 -1044 55 -89 175 -323 175 -343 0 -10 76
-19 218 -25 39 -1 72 -1 72 1 0 2 -21 54 -46 115 -306 750 -951 1315 -1732
1516 -192 50 -360 71 -587 76 -110 2 -238 0 -285 -5z"/>
<path d="M1013 3561 c-124 -46 -249 -138 -404 -297 -411 -425 -651 -926 -588
-1226 35 -164 150 -273 304 -285 106 -9 212 24 329 102 29 19 56 35 60 35 3 0
6 -13 6 -28 0 -43 37 -72 91 -72 60 0 82 24 150 163 63 128 151 242 252 326
39 33 73 58 75 56 2 -2 -1 -12 -7 -23 -15 -27 -13 -103 2 -122 40 -51 130 -66
217 -35 23 8 45 15 49 15 3 0 4 -24 3 -54 -7 -113 50 -221 141 -265 96 -46
262 -20 391 63 32 20 56 31 53 24 -30 -73 -100 -309 -117 -393 -88 -461 121
-679 391 -406 156 159 312 472 369 743 57 268 28 463 -87 580 l-47 47 75 36
c136 64 219 66 304 8 80 -55 162 -28 186 60 14 54 5 98 -29 130 -71 68 -195
81 -386 40 l-29 -6 19 32 c30 52 179 248 243 320 77 87 101 128 101 173 0 77
-99 105 -176 50 -102 -74 -290 -336 -444 -619 -59 -108 -74 -127 -126 -166
-103 -76 -151 -150 -139 -214 5 -29 0 -42 -30 -83 -91 -124 -250 -230 -345
-230 -78 0 -126 57 -100 119 10 25 13 26 98 26 76 0 94 4 147 30 280 140 349
535 97 553 -126 9 -266 -79 -402 -251 -33 -43 -78 -84 -127 -117 -81 -54 -94
-58 -113 -35 -13 16 10 42 138 157 34 31 42 44 42 73 0 47 -37 85 -82 85 -61
0 -220 -113 -373 -262 -49 -48 -91 -88 -93 -88 -9 0 37 71 92 143 81 106 89
122 81 158 -9 39 -40 59 -93 59 -38 0 -49 -6 -95 -49 -29 -28 -86 -102 -127
-166 -111 -173 -184 -268 -275 -359 -134 -134 -251 -180 -335 -130 -133 77
-90 344 112 697 166 290 501 649 644 691 13 4 30 -1 47 -15 36 -27 35 -67 -2
-144 -38 -82 -97 -153 -181 -221 -39 -31 -78 -70 -86 -85 -34 -68 -3 -149 65
-170 84 -25 183 46 286 206 91 138 135 269 135 397 0 94 -31 162 -92 204 -36
26 -51 29 -127 32 -65 2 -99 -2 -138 -17z m1055 -1024 c10 -51 -37 -119 -103
-148 -45 -21 -95 -25 -95 -7 0 20 80 118 123 149 44 32 70 34 75 6z m505 -298
c40 -80 45 -165 17 -299 -58 -281 -249 -650 -331 -638 -106 15 -30 356 192
856 46 104 67 142 78 140 9 -2 29 -28 44 -59z"/>
<path d="M4611 3276 c-45 -34 -125 -127 -248 -291 -99 -130 -109 -141 -147
-148 -156 -32 -187 -40 -210 -58 -30 -23 -42 -73 -27 -112 12 -31 62 -57 110
-57 l31 0 -54 -102 c-30 -56 -65 -108 -78 -116 -13 -8 -56 -57 -97 -109 -77
-97 -141 -147 -182 -141 -58 8 -49 76 26 189 30 46 55 88 55 95 0 6 -10 24
-21 38 -19 24 -20 32 -10 65 24 83 9 164 -42 218 -39 42 -84 56 -161 51 -93
-6 -163 -45 -272 -153 -104 -104 -177 -215 -225 -344 -29 -76 -33 -98 -33
-192 -1 -99 1 -108 26 -147 35 -53 79 -76 143 -75 73 0 137 33 205 103 l58 60
7 -40 c8 -50 58 -104 104 -113 76 -16 203 35 299 119 l52 46 0 -34 c1 -46 31
-109 68 -140 99 -83 254 -57 406 68 l64 53 12 -30 c15 -36 71 -86 106 -95 14
-4 54 -4 89 -2 93 8 170 53 280 163 152 151 198 277 110 299 -36 9 -56 -4
-159 -109 -99 -102 -151 -134 -187 -114 -18 9 -21 18 -16 55 5 50 42 115 139
246 61 82 68 95 68 137 0 72 -50 113 -116 97 -39 -10 -107 -79 -165 -169 -122
-187 -282 -362 -367 -399 -40 -18 -45 -18 -67 -4 -50 33 -44 87 31 263 51 119
75 164 146 270 40 60 54 74 86 82 74 20 209 49 279 61 97 16 133 47 133 114 0
90 -59 115 -192 80 -33 -8 -64 -14 -70 -12 -6 2 29 53 77 113 117 146 124 167
76 216 -38 38 -93 40 -140 5z m-1047 -732 c9 -8 16 -21 16 -27 0 -28 -51 -116
-94 -163 -33 -37 -46 -60 -46 -82 0 -41 -95 -132 -139 -132 -37 0 -55 28 -46
73 12 57 82 191 126 241 83 94 148 126 183 90z"/>
<path d="M5125 3221 c-75 -35 -135 -120 -135 -191 0 -22 10 -41 30 -62 28 -28
36 -30 80 -26 98 10 180 98 180 194 0 46 -4 55 -31 78 -36 31 -69 32 -124 7z"/>
<path d="M4975 1763 l-50 -4 -24 -62 c-62 -162 -204 -402 -331 -561 -366 -459
-927 -775 -1513 -851 -223 -29 -541 -15 -752 31 -689 153 -1260 591 -1575
1208 l-55 107 -132 -3 c-72 -2 -134 -6 -138 -10 -10 -9 119 -272 189 -388 391
-641 1052 -1079 1806 -1195 144 -23 467 -31 616 -16 767 77 1458 490 1883
1126 119 178 265 472 297 598 l6 27 -88 -2 c-49 -1 -112 -3 -139 -5z"/>
</g>
</svg>
