<?xml version="1.0" encoding="UTF-8" standalone="no"?>
<!-- Created with Inkscape (http://www.inkscape.org/) -->

<svg
   xmlns:dc="http://purl.org/dc/elements/1.1/"
   xmlns:cc="http://creativecommons.org/ns#"
   xmlns:rdf="http://www.w3.org/1999/02/22-rdf-syntax-ns#"
   xmlns:svg="http://www.w3.org/2000/svg"
   xmlns="http://www.w3.org/2000/svg"
   xmlns:sodipodi="http://sodipodi.sourceforge.net/DTD/sodipodi-0.dtd"
   xmlns:inkscape="http://www.inkscape.org/namespaces/inkscape"
   width="210mm"
   height="297mm"
   viewBox="0 0 210 297"
   version="1.1"
   id="svg8"
   inkscape:version="0.92.4 (5da689c313, 2019-01-14)"
   sodipodi:docname="insipirationd.svg">
  <defs
     id="defs2" />
  <sodipodi:namedview
     id="base"
     pagecolor="#ffffff"
     bordercolor="#666666"
     borderopacity="1.0"
     inkscape:pageopacity="0.0"
     inkscape:pageshadow="2"
     inkscape:zoom="0.98994949"
     inkscape:cx="206.98354"
     inkscape:cy="646.95336"
     inkscape:document-units="mm"
     inkscape:current-layer="layer1"
     showgrid="false"
     inkscape:window-width="1280"
     inkscape:window-height="1001"
     inkscape:window-x="-8"
     inkscape:window-y="-8"
     inkscape:window-maximized="1" />
  <metadata
     id="metadata5">
    <rdf:RDF>
      <cc:Work
         rdf:about="">
        <dc:format>image/svg+xml</dc:format>
        <dc:type
           rdf:resource="http://purl.org/dc/dcmitype/StillImage" />
        <dc:title></dc:title>
      </cc:Work>
    </rdf:RDF>
  </metadata>
  <g
     inkscape:label="Layer 1"
     inkscape:groupmode="layer"
     id="layer1">
    <g
       id="g1713"
       transform="matrix(0.26458333,0,0,0.26458333,23.51441,48.573717)">
      <g
         id="background">
        <path
           id="path1176"
           style="fill:#e8e8e8"
           transform="translate(-27.31,-29.29)"
           d="m 51.06,414.23 a 22.35,22.35 0 0 1 -10.8,-9.56 19.59,19.59 0 0 1 -2.44,-7.35 c -0.58,-5.14 1.72,-11.95 8.44,-10.89 a 0.76,0.76 0 0 0 1,-0.72 7,7 0 0 1 6.39,-7 0.76,0.76 0 0 0 0.53,-0.93 c -3.34,-8.82 -10.06,-40.37 7,-39.1 12.38,0.91 22.54,15 27.06,25.32 l 1.3,-0.76 c -1.15,-1.95 -2.78,-4.82 -2.5,-7.16 0.42,-3.58 4,-8.81 8.28,-5.06 a 0.75,0.75 0 0 0 1.25,-0.73 c -0.49,-2 -1.32,-4.64 -1.06,-6.66 0.44,-3.5 3,-8.75 7.81,-5.94 a 0.76,0.76 0 0 0 1.1,-0.85 c -1,-4 1.2,-7.71 4.75,-9.51 3.92,-2 8.37,-0.62 11.76,1.75 5.5,3.86 7.94,10.38 10.21,16.43 a 0.75,0.75 0 0 0 1.44,-0.4 c -1.57,-6.76 6.66,-6.32 9.69,-4.59 a 21,21 0 0 1 4.51,3.8 34.67,34.67 0 0 1 6.86,11 c 0.35,0.88 1.8,0.5 1.44,-0.4 -2.6,-6.47 -7.6,-15 -14.87,-17 -4.91,-1.35 -10.33,2.14 -9.07,7.53 l 1.44,-0.4 c -3.17,-8.49 -7.75,-19.19 -18.15,-20.2 -6.91,-0.67 -13.19,5.34 -11.46,12.33 l 1.1,-0.85 a 6.25,6.25 0 0 0 -8,1.42 c -3.22,3.53 -2,8.76 -1,12.88 l 1.26,-0.73 a 6.29,6.29 0 0 0 -8.85,0.64 c -3.64,3.81 -1.58,9.5 0.71,13.4 0.5,0.85 1.67,0.1 1.3,-0.76 C 84.77,352.41 74.13,338.07 61.23,337.05 46.84,336 47.93,357 49.39,366.16 a 57.78,57.78 0 0 0 1.32,6.11 c 0.34,1.27 1.9,4 1.24,5.22 -0.48,0.9 -3.66,1.91 -4.57,3.13 -1.47,2 -1,3.29 -3,4.17 -2.2,1 -4.15,1 -5.9,3.09 -8,9.57 2.9,23.72 11.77,27.65 0.88,0.39 1.64,-0.9 0.76,-1.3 z"
           inkscape:connector-curvature="0" />
        <path
           id="path1178"
           style="fill:#e8e8e8"
           transform="translate(-27.31,-29.29)"
           d="m 393.55,364.3 c 0.79,-6.2 3.72,-17.11 12.34,-13.66 a 0.76,0.76 0 0 0 0.92,-0.53 c 1.93,-4.81 4.19,-10 8,-13.65 a 13.54,13.54 0 0 1 8.35,-4 c 1.69,-0.18 3.53,0.15 5,-0.89 1.34,-0.92 2.07,-2.68 2.87,-4 a 65.18,65.18 0 0 1 5.42,-7.78 28.91,28.91 0 0 1 7,-6.43 c 4.55,-2.75 13.19,-2.22 12.45,5.24 -0.09,0.91 1.19,0.92 1.48,0.2 2.8,-7.06 8.89,-14.12 17.08,-14.29 7.57,-0.16 13.06,5.85 15.68,12.4 5.41,13.54 -1.53,28 -3.18,41.66 -0.11,1 1.39,1 1.5,0 2,-16.17 11.32,-35.7 -1.57,-49.85 -10.81,-11.87 -26,-2.87 -31,9.68 l 1.47,0.2 c 0.78,-7.91 -8.32,-10 -14.05,-6.93 -4.47,2.39 -7.92,6.63 -10.79,10.7 -2.23,3.17 -3.79,7.32 -7.85,8.57 -1.84,0.56 -3.74,0.16 -5.64,0.88 a 18.37,18.37 0 0 0 -8.06,6.8 39.6,39.6 0 0 0 -3.46,5.95 c -0.92,1.92 -1.07,3.72 -3.09,4.09 -3.26,0.59 -5.66,0.33 -8.21,3.1 -3.1,3.39 -3.69,8.22 -4.25,12.58 -0.12,0.95 1.38,0.94 1.5,0 z"
           inkscape:connector-curvature="0" />
        <path
           id="path1180"
           style="fill:#e8e8e8"
           transform="translate(-27.31,-29.29)"
           d="m 493.93,334.38 c 0.79,-7.46 10.13,-8.64 13.12,-1.93 a 0.76,0.76 0 0 0 1.3,0 c 3.31,-5.69 9.38,-11.36 16.35,-10.63 8.68,0.91 7.93,11.46 7.3,18.06 A 106.19,106.19 0 0 1 522.29,375 c -0.41,0.87 0.88,1.63 1.29,0.76 A 108.7,108.7 0 0 0 532,350.53 c 1.37,-6.93 3.18,-15.51 1.34,-22.45 -4.11,-15.46 -21,-5.38 -26.25,3.62 h 1.3 c -3.71,-8.31 -15,-6.19 -15.92,2.68 -0.1,1 1.4,0.95 1.5,0 z"
           inkscape:connector-curvature="0" />
        <path
           id="path1182"
           style="fill:#e8e8e8"
           transform="translate(-27.31,-29.29)"
           d="m 526.88,366.39 a 20.1,20.1 0 0 1 2.7,-3.39 q 4.27,-4.54 7.43,2.24 c -0.32,0.74 0.52,1.56 1.18,0.91 1.34,-1.34 3.08,-3.29 5.1,-3.6 5.74,-0.88 6,6.07 5.66,9.26 a 27.36,27.36 0 0 1 -3.7,10.59 c -0.47,0.85 0.83,1.61 1.29,0.76 3,-5.51 6,-13.13 2.67,-19.21 -3,-5.58 -8.74,-2.18 -12.09,1.14 l 1.18,0.91 a 4.43,4.43 0 0 0 -2.78,-6.26 c -4.41,-1.36 -7.72,2.76 -9.93,5.89 -0.56,0.79 0.74,1.54 1.29,0.76 z"
           inkscape:connector-curvature="0" />
        <path
           id="path1184"
           style="fill:#e8e8e8"
           transform="translate(-27.31,-29.29)"
           d="m 407.43,415.13 a 37.51,37.51 0 0 1 3.64,-11 35,35 0 0 1 2.9,-4.61 23,23 0 0 1 1.9,-2.4 q 1.69,-2.71 5.2,-1 l 1.17,0.91 a 73.09,73.09 0 0 1 24.92,-28.92 c 1.82,-1.22 3.66,-3.44 4.79,0.88 0.29,1.09 -0.7,3.3 -0.95,4.36 q -1.14,4.77 -2.65,9.44 a 125.35,125.35 0 0 1 -9.13,21.08 c -0.46,0.85 0.83,1.6 1.29,0.76 a 24.09,24.09 0 0 1 4.56,-6.42 l 1.89,-1.38 3.27,1.85 c 0.11,0.6 -1.71,3.68 -2,4.25 -0.4,0.87 0.89,1.64 1.3,0.76 1.13,-2.43 5.58,-8.36 0.72,-9.17 -5.17,-0.86 -9,5.71 -11,9.35 l 1.29,0.76 c 2.44,-4.49 18.72,-39.08 11.28,-40.26 -2.49,-0.4 -5.5,2.48 -7.31,3.78 a 73.81,73.81 0 0 0 -9.07,7.68 75.17,75.17 0 0 0 -14.44,20.44 c -0.35,0.72 0.58,1.6 1.18,0.91 2.94,-3.38 -2.08,-5.36 -4.92,-3.51 -6.39,4.17 -10,14 -11.22,21.06 -0.17,0.94 1.27,1.35 1.44,0.4 z"
           inkscape:connector-curvature="0" />
        <path
           id="path1186"
           style="fill:#e8e8e8"
           transform="translate(-27.31,-29.29)"
           d="m 457.54,421.49 a 21.21,21.21 0 0 1 8,-12.55 l -1.28,-0.53 0.19,5.16 c 0,0.69 1.07,1.1 1.4,0.38 a 86.21,86.21 0 0 1 7.46,-13.2 81.4,81.4 0 0 1 5.06,-6.5 c 0.92,-1.07 1.87,-2.1 2.84,-3.12 0.39,-0.41 0.78,-0.81 1.18,-1.2 0.72,-1.12 1.31,-0.75 1.75,1.09 a 0.76,0.76 0 0 0 1.26,0.73 c 1.67,-1.73 3.38,-3.42 5.2,-5 1,-0.9 4.16,-4.55 5.52,-4.34 4.86,0.76 0.19,10.18 -0.75,12.72 A 95,95 0 0 1 482.94,418 c -0.57,0.78 0.73,1.53 1.29,0.75 7,-9.56 14.41,-22.25 15.88,-34.26 1.36,-11.1 -14.06,4.45 -15.78,6.24 l 1.25,0.73 c 0.44,-1.3 0.87,-3 -0.48,-3.91 -1.91,-1.25 -3.85,1.41 -5,2.56 a 83.91,83.91 0 0 0 -15.6,23.12 l 1.4,0.38 -0.19,-5.16 a 0.76,0.76 0 0 0 -1.28,-0.53 22.34,22.34 0 0 0 -8.38,13.21 c -0.21,0.94 1.23,1.34 1.45,0.4 z"
           inkscape:connector-curvature="0" />
        <path
           id="path1188"
           style="fill:#e8e8e8"
           transform="translate(-27.31,-29.29)"
           d="m 488.8,411.46 a 17,17 0 0 1 2.25,-2.31 c 0.08,-0.07 4.63,-3.53 4.13,-0.85 a 0.75,0.75 0 0 0 1.25,0.73 35.79,35.79 0 0 1 5.12,-4.22 c 0.55,-0.37 1.95,-1.62 2.66,-1.59 l 3.2,1.75 a 22.74,22.74 0 0 1 -1,2.51 44.07,44.07 0 0 1 -7.79,11.52 c -0.65,0.71 0.41,1.77 1.06,1.06 a 47.09,47.09 0 0 0 7.12,-10 c 1,-1.94 3.15,-5.4 2,-7.75 -2.41,-5 -11.44,3.7 -13.45,5.67 l 1.26,0.73 c 0.26,-1.42 -0.25,-2.91 -1.92,-3.11 -2.52,-0.29 -5.58,3.11 -7,4.81 -0.6,0.74 0.45,1.8 1.06,1.06 z"
           inkscape:connector-curvature="0" />
        <path
           id="path1190"
           style="fill:#e8e8e8"
           transform="translate(-27.31,-29.29)"
           d="m 78.41,479.23 c -7.55,-4.45 -15.14,-9 -21.9,-14.57 a 65.54,65.54 0 0 1 -8.71,-8.6 c -1.38,-1.67 -3.49,-4 -4.32,-6.08 -1.22,-1.39 -1.18,-3 0.11,-4.69 a 14.93,14.93 0 0 1 3.35,2.23 c 0.73,0.6 1.79,-0.4 1.06,-1.06 -4.82,-4.3 -9.74,-8.78 -13.14,-14.34 -1.11,-1.82 -4.91,-8.28 -3.67,-10.48 1.24,-2.2 9.17,4.26 10.27,5.06 Q 61,441 79.19,456.9 c 0.73,0.64 1.79,-0.42 1.06,-1.06 Q 67.68,444.92 54.53,434.69 48.8,430.27 43,426 c -3.86,-2.84 -7.54,-5.87 -12.41,-6.53 a 0.76,0.76 0 0 0 -0.95,0.72 c 0.5,11.68 9.11,20 17.32,27.36 L 48,446.46 a 19.18,19.18 0 0 0 -6.47,-3.53 0.77,0.77 0 0 0 -0.93,0.52 c -2.33,6.95 8,16.18 12.52,20.26 7.39,6.65 16,11.78 24.54,16.81 a 0.75,0.75 0 0 0 0.75,-1.29 z"
           inkscape:connector-curvature="0" />
        <path
           id="path1192"
           style="fill:#e8e8e8"
           transform="translate(-27.31,-29.29)"
           d="m 70.47,447.78 c -1.15,-1.22 -4,-6.33 -0.24,-5.71 0.88,0.14 2.38,1.38 3.07,1.81 0.52,0.33 1.35,-0.22 1.11,-0.84 -1,-1.32 -0.6,-2.16 1.31,-2.54 q 1.75,-2.37 3.27,-0.07 a 28.73,28.73 0 0 1 4.18,3.47 c 2.76,2.36 5.42,4.81 8,7.32 0.7,0.67 1.76,-0.39 1.06,-1.06 -3,-2.93 -6.18,-5.77 -9.42,-8.49 -1.91,-1.6 -4.81,-4.92 -7.4,-5.58 -4.55,-1.15 -3.39,5.1 -2.49,7.34 l 1.1,-0.84 c -1.43,-0.9 -5.82,-4.62 -7.65,-2.65 -2.13,2.29 1.56,7.37 3,8.9 0.66,0.71 1.72,-0.35 1.06,-1.06 z"
           inkscape:connector-curvature="0" />
        <path
           id="path1194"
           style="fill:#e8e8e8"
           transform="translate(-27.31,-29.29)"
           d="m 121.57,434.35 a 49.68,49.68 0 0 1 -20,-16.43 l -0.85,1.1 a 8.35,8.35 0 0 1 4.86,2.58 c 0.72,0.65 1.77,-0.39 1.06,-1.06 -10.26,-9.82 -23.42,-21.47 -26.92,-35.76 l -0.92,0.92 c 17.41,3.56 28.24,18.42 40.43,30 0.7,0.66 1.76,-0.4 1.06,-1.06 -12.39,-11.77 -23.4,-26.77 -41.1,-30.39 a 0.76,0.76 0 0 0 -0.92,0.92 c 3.57,14.59 16.88,26.45 27.31,36.43 l 1.06,-1.06 a 11.86,11.86 0 0 0 -5.52,-3 c -0.59,-0.15 -1.25,0.54 -0.85,1.1 a 51.37,51.37 0 0 0 20.52,17 c 0.87,0.4 1.64,-0.89 0.76,-1.3 z"
           inkscape:connector-curvature="0" />
        <path
           id="path1196"
           style="fill:#e8e8e8"
           transform="translate(-27.31,-29.29)"
           d="m 118.42,411.64 c -0.55,-0.93 -2.32,-4 -1.76,-5.16 1.06,-2.3 3.09,0.22 4.21,0.85 0.45,0.25 1.19,-0.06 1.13,-0.65 a 20.51,20.51 0 0 1 -0.5,-4.38 q -0.7,-1.94 1.8,-2.34 a 23.93,23.93 0 0 1 2.32,1.67 26,26 0 0 1 5.77,6.81 c 0.5,0.82 1.8,0.07 1.3,-0.76 a 28.1,28.1 0 0 0 -4.49,-5.75 c -1.4,-1.35 -3.59,-3.54 -5.59,-3.88 -4.42,-0.75 -2.36,6.42 -2.11,8.63 l 1.12,-0.65 c -1.6,-0.89 -4.37,-3.74 -6.12,-1.3 -1.43,2 0.61,5.93 1.63,7.66 a 0.75,0.75 0 0 0 1.29,-0.75 z"
           inkscape:connector-curvature="0" />
        <path
           id="path1198"
           style="fill:#e8e8e8"
           transform="translate(-27.31,-29.29)"
           d="M 66.39,521.37 C 80,536.22 94,551.2 112.9,559.15 c 0.89,0.38 1.28,-1.07 0.4,-1.44 -18.6,-7.83 -32.5,-22.78 -45.85,-37.4 -0.65,-0.72 -1.71,0.35 -1.06,1.06 z"
           inkscape:connector-curvature="0" />
        <path
           id="path1200"
           style="fill:#e8e8e8"
           transform="translate(-27.31,-29.29)"
           d="m 66.82,517.76 c 19.43,3.49 38.46,-3.19 55.93,-11.21 a 237.42,237.42 0 0 0 49.86,-31 c 0.75,-0.61 -0.31,-1.66 -1.06,-1.06 a 236.25,236.25 0 0 1 -46.39,29.29 c -17.89,8.54 -37.82,16.15 -57.95,12.55 -0.94,-0.17 -1.35,1.27 -0.39,1.44 z"
           inkscape:connector-curvature="0" />
        <path
           id="path1202"
           style="fill:#e8e8e8"
           transform="translate(-27.31,-29.29)"
           d="m 115.12,561.18 a 193.86,193.86 0 0 0 94.64,-42.69 c 0.74,-0.62 -0.32,-1.68 -1.06,-1.07 a 192.36,192.36 0 0 1 -94,42.31 c -1,0.15 -0.55,1.59 0.4,1.45 z"
           inkscape:connector-curvature="0" />
        <path
           id="path1204"
           style="fill:#e8e8e8"
           transform="translate(-27.31,-29.29)"
           d="m 175.9,477.56 c 11.65,12.18 22.2,26.38 39.52,30.08 0.94,0.2 1.35,-1.24 0.4,-1.44 -17,-3.64 -27.44,-17.76 -38.86,-29.71 -0.66,-0.69 -1.72,0.37 -1.06,1.07 z"
           inkscape:connector-curvature="0" />
        <path
           id="path1206"
           style="fill:#e8e8e8"
           transform="translate(-27.31,-29.29)"
           d="m 96.73,534 10.89,8.11 c 0.78,0.57 1.53,-0.73 0.76,-1.3 l -10.89,-8.1 c -0.78,-0.58 -1.53,0.72 -0.76,1.29 z"
           inkscape:connector-curvature="0" />
        <path
           id="path1208"
           style="fill:#e8e8e8"
           transform="translate(-27.31,-29.29)"
           d="m 100.43,524.84 a 108.09,108.09 0 0 0 25,18.39 c 0.86,0.46 1.61,-0.83 0.76,-1.29 A 107.05,107.05 0 0 1 101.5,523.78 c -0.68,-0.68 -1.75,0.38 -1.06,1.06 z"
           inkscape:connector-curvature="0" />
        <path
           id="path1210"
           style="fill:#e8e8e8"
           transform="translate(-27.31,-29.29)"
           d="M 116.14,518.92 A 271,271 0 0 0 136.27,539 c 0.72,0.65 1.78,-0.41 1.06,-1.06 A 271,271 0 0 1 117.2,517.82 c -0.65,-0.72 -1.7,0.34 -1.06,1.06 z"
           inkscape:connector-curvature="0" />
        <path
           id="path1212"
           style="fill:#e8e8e8"
           transform="translate(-27.31,-29.29)"
           d="m 129.67,519.2 a 119.1,119.1 0 0 0 19.41,14.14 0.75,0.75 0 0 0 0.76,-1.29 117.4,117.4 0 0 1 -19.11,-13.91 c -0.71,-0.64 -1.78,0.42 -1.06,1.06 z"
           inkscape:connector-curvature="0" />
        <path
           id="path1214"
           style="fill:#e8e8e8"
           transform="translate(-27.31,-29.29)"
           d="m 135.72,509.12 a 123,123 0 0 0 27.1,21.46 0.75,0.75 0 0 0 0.76,-1.29 121.49,121.49 0 0 1 -26.8,-21.23 c -0.67,-0.7 -1.73,0.36 -1.06,1.06 z"
           inkscape:connector-curvature="0" />
        <path
           id="path1216"
           style="fill:#e8e8e8"
           transform="translate(-27.31,-29.29)"
           d="m 154.55,552.44 a 125.86,125.86 0 0 0 29.37,18.48 c 4.64,2.07 9.63,4.47 14.77,4.76 5.39,0.3 11,-2 16,-3.71 a 173.69,173.69 0 0 0 59.13,-34.26 c 0.73,-0.64 -0.34,-1.7 -1.06,-1.06 a 172.08,172.08 0 0 1 -55.23,32.75 107.32,107.32 0 0 1 -13.9,4.29 c -7,1.47 -13.49,-1.59 -19.75,-4.42 a 123.48,123.48 0 0 1 -28.28,-17.9 c -0.74,-0.61 -1.8,0.45 -1.06,1.07 z"
           inkscape:connector-curvature="0" />
        <path
           id="path1218"
           style="fill:#e8e8e8"
           transform="translate(-27.31,-29.29)"
           d="m 205.47,502.1 7.8,-7.46 c 2.43,-2.33 3.54,-4.4 8.09,-2.25 1.19,0.56 2.33,2 3.33,2.88 q 7.13,6 14.77,11.42 a 211.63,211.63 0 0 0 35.16,19.95 c 0.87,0.39 1.63,-0.9 0.75,-1.3 a 211,211 0 0 1 -40.84,-24.1 q -5.19,-3.93 -10.12,-8.18 c -1.52,-1.3 -3.92,-4.56 -6.33,-4.25 -1.79,0.23 -3.37,2.37 -4.57,3.52 L 204.4,501 c -0.69,0.67 0.37,1.73 1.07,1.06 z"
           inkscape:connector-curvature="0" />
        <path
           id="path1220"
           style="fill:#e8e8e8"
           transform="translate(-27.31,-29.29)"
           d="m 178.23,550.38 q 10,5.13 19.68,10.71 a 0.75292762,0.75292762 0 0 0 0.76,-1.3 Q 189,554.21 179,549.08 c -0.86,-0.44 -1.62,0.86 -0.76,1.3 z"
           inkscape:connector-curvature="0" />
        <path
           id="path1222"
           style="fill:#e8e8e8"
           transform="translate(-27.31,-29.29)"
           d="m 188,548.36 a 58.61,58.61 0 0 0 18.68,10.14 c 0.92,0.3 1.32,-1.15 0.4,-1.45 a 56.41,56.41 0 0 1 -18,-9.75 c -0.75,-0.6 -1.82,0.45 -1.06,1.06 z"
           inkscape:connector-curvature="0" />
        <path
           id="path1224"
           style="fill:#e8e8e8"
           transform="translate(-27.31,-29.29)"
           d="M 193.78,536.77 A 76.8,76.8 0 0 0 225,553.45 0.75208045,0.75208045 0 0 0 225.4,552 75.1,75.1 0 0 1 194.81,535.71 c -0.72,-0.64 -1.78,0.42 -1.06,1.06 z"
           inkscape:connector-curvature="0" />
        <path
           id="path1226"
           style="fill:#e8e8e8"
           transform="translate(-27.31,-29.29)"
           d="m 207.5,530.54 17.32,14.32 c 0.74,0.61 1.8,-0.45 1.06,-1.06 l -17.31,-14.32 c -0.74,-0.61 -1.81,0.44 -1.07,1.06 z"
           inkscape:connector-curvature="0" />
        <path
           id="path1228"
           style="fill:#e8e8e8"
           transform="translate(-27.31,-29.29)"
           d="m 221.47,528.34 12.77,9.06 c 0.79,0.56 1.54,-0.74 0.75,-1.29 l -12.76,-9.06 c -0.79,-0.56 -1.54,0.74 -0.76,1.29 z"
           inkscape:connector-curvature="0" />
        <path
           id="path1230"
           style="fill:#e8e8e8"
           transform="translate(-27.31,-29.29)"
           d="m 339.79,526.41 a 202.07,202.07 0 0 0 29.32,-17.19 c 9.19,-6.52 17.19,-14.88 26.8,-20.74 0.82,-0.51 0.06,-1.8 -0.76,-1.3 -9.62,5.88 -17.6,14.22 -26.8,20.74 A 201.6,201.6 0 0 1 339,525.12 c -0.87,0.42 -0.11,1.71 0.76,1.29 z"
           inkscape:connector-curvature="0" />
        <path
           id="path1232"
           style="fill:#e8e8e8"
           transform="translate(-27.31,-29.29)"
           d="m 341.31,528.94 a 197.59,197.59 0 0 0 101.51,34 c 1,0.05 1,-1.45 0,-1.5 A 196.14,196.14 0 0 1 342.07,527.66 c -0.8,-0.55 -1.55,0.75 -0.76,1.29 z"
           inkscape:connector-curvature="0" />
        <path
           id="path1234"
           style="fill:#e8e8e8"
           transform="translate(-27.31,-29.29)"
           d="m 119.15,475.3 c -0.24,-6.94 -0.08,-14.34 6.2,-18.76 5,-3.51 15,-6.47 19.8,-1.66 3,3 3.76,5.85 1.42,9.37 -0.72,1.08 -1.39,1.61 -1.68,3 -0.5,2.4 0.47,4.7 -0.08,7.12 -1.18,5.18 -6.33,6.18 -11,5.68 -1,-0.1 -1,1.4 0,1.5 6.72,0.72 13.35,-2.21 12.75,-9.81 -0.22,-2.81 0.46,-4.39 2,-6.88 0.25,-0.41 1,-0.54 1.16,-1 a 6.34,6.34 0 0 0 0.37,-1.88 c 0,-2.77 -2.15,-7 -4.25,-8.76 -5.22,-4.43 -14.76,-1.78 -20,1.3 -7.73,4.57 -8.49,12.62 -8.2,20.85 0,1 1.53,1 1.5,0 z"
           inkscape:connector-curvature="0" />
        <path
           id="path1236"
           style="fill:#e8e8e8"
           transform="translate(-27.31,-29.29)"
           d="m 117.89,473.89 a 13.36,13.36 0 0 0 14.25,8.76 c 0.94,-0.12 1,-1.63 0,-1.5 a 11.91,11.91 0 0 1 -12.81,-7.66 c -0.32,-0.9 -1.77,-0.51 -1.44,0.4 z"
           inkscape:connector-curvature="0" />
        <path
           id="path1238"
           style="fill:#e8e8e8"
           transform="translate(-27.31,-29.29)"
           d="m 132.38,476 c -4.33,-1.71 -4,-6.81 -2.16,-10.22 1.22,-2.3 2.23,-4 5.42,-3.77 a 10,10 0 0 1 4.2,1.83 c 0.82,0.53 1.57,-0.77 0.76,-1.29 -2,-1.3 -4.91,-2.7 -7.38,-2.09 -2.32,0.57 -3.85,3.5 -4.76,5.48 -1.94,4.27 -1.22,9.64 3.52,11.51 0.9,0.35 1.29,-1.1 0.4,-1.45 z"
           inkscape:connector-curvature="0" />
        <path
           id="path1240"
           style="fill:#e8e8e8"
           transform="translate(-27.31,-29.29)"
           d="m 136.47,471.82 c -1.76,-0.65 0.18,-2.68 1,-3.12 a 41.28,41.28 0 0 1 4.29,-1.79 c 0.88,-0.36 0.5,-1.81 -0.4,-1.45 -2.09,0.85 -5.32,1.55 -6.56,3.64 a 2.82,2.82 0 0 0 1.29,4.16 c 0.91,0.33 1.3,-1.12 0.4,-1.44 z"
           inkscape:connector-curvature="0" />
        <path
           id="path1242"
           style="fill:#e8e8e8"
           transform="translate(-27.31,-29.29)"
           d="m 139.14,455.34 a 14.84,14.84 0 0 0 -16.44,10 c -0.3,0.92 1.15,1.32 1.45,0.4 a 13.3,13.3 0 0 1 14.59,-8.95 c 0.95,0.15 1.36,-1.3 0.4,-1.45 z"
           inkscape:connector-curvature="0" />
        <path
           id="path1244"
           style="fill:#e8e8e8"
           transform="translate(-27.31,-29.29)"
           d="m 393.38,489.65 c 9.72,9.73 26.08,12.49 38.87,15.82 a 403.57,403.57 0 0 0 48.47,9.45 c 1,0.13 0.95,-1.37 0,-1.5 a 399.21,399.21 0 0 1 -46.24,-8.92 c -7.33,-1.88 -14.62,-3.95 -21.83,-6.27 -6.68,-2.15 -13.16,-4.58 -18.21,-9.64 -0.69,-0.68 -1.75,0.38 -1.06,1.06 z"
           inkscape:connector-curvature="0" />
        <path
           id="path1246"
           style="fill:#e8e8e8"
           transform="translate(-27.31,-29.29)"
           d="M 479.66,515.31 A 213.75,213.75 0 0 1 444,556.5 c -0.72,0.64 0.34,1.7 1.06,1.06 A 215.12,215.12 0 0 0 481,516.07 c 0.54,-0.81 -0.76,-1.56 -1.3,-0.76 z"
           inkscape:connector-curvature="0" />
        <path
           id="path1248"
           style="fill:#e8e8e8"
           transform="translate(-27.31,-29.29)"
           d="m 384.27,506.58 q -7.09,6.45 -13.52,13.53 c -0.65,0.71 0.41,1.78 1.06,1.06 q 6.44,-7.09 13.52,-13.52 c 0.72,-0.66 -0.35,-1.71 -1.06,-1.07 z"
           inkscape:connector-curvature="0" />
        <path
           id="path1250"
           style="fill:#e8e8e8"
           transform="translate(-27.31,-29.29)"
           d="m 399.78,508.85 -20.06,20.78 c -0.67,0.7 0.39,1.76 1.06,1.06 l 20.06,-20.78 c 0.67,-0.7 -0.39,-1.76 -1.06,-1.06 z"
           inkscape:connector-curvature="0" />
        <path
           id="path1252"
           style="fill:#e8e8e8"
           transform="translate(-27.31,-29.29)"
           d="m 403.73,515.1 -15,15.46 c -0.67,0.69 0.39,1.75 1.06,1.06 l 15.05,-15.45 c 0.67,-0.7 -0.39,-1.76 -1.07,-1.07 z"
           inkscape:connector-curvature="0" />
        <path
           id="path1254"
           style="fill:#e8e8e8"
           transform="translate(-27.31,-29.29)"
           d="m 421.85,512.47 a 290.13,290.13 0 0 1 -28.69,28.28 c -0.73,0.62 0.33,1.68 1.06,1.06 a 289,289 0 0 0 28.69,-28.28 c 0.64,-0.72 -0.42,-1.78 -1.06,-1.06 z"
           inkscape:connector-curvature="0" />
        <path
           id="path1256"
           style="fill:#e8e8e8"
           transform="translate(-27.31,-29.29)"
           d="m 429.56,510 a 0.75,0.75 0 0 0 0,-1.5 0.75,0.75 0 0 0 0,1.5 z"
           inkscape:connector-curvature="0" />
        <path
           id="path1258"
           style="fill:#e8e8e8"
           transform="translate(-27.31,-29.29)"
           d="m 431.28,488.17 a 0.75,0.75 0 0 0 0,-1.5 0.75,0.75 0 0 0 0,1.5 z"
           inkscape:connector-curvature="0" />
        <path
           id="path1260"
           style="fill:#e8e8e8"
           transform="translate(-27.31,-29.29)"
           d="m 379.7,475.41 c -5.84,-8.22 7.07,-21.84 15.66,-19.58 3.42,0.9 8,2.91 9.89,6 2.64,4.23 -0.95,13 -5.75,14.59 -0.91,0.3 -0.52,1.75 0.4,1.45 4.73,-1.57 8.83,-9.21 7.78,-14.05 -1.09,-5.07 -6.74,-7.78 -11.22,-9.2 -10.22,-3.25 -24.94,11.86 -18.06,21.55 0.56,0.78 1.86,0 1.3,-0.76 z"
           inkscape:connector-curvature="0" />
        <path
           id="path1262"
           style="fill:#e8e8e8"
           transform="translate(-27.31,-29.29)"
           d="m 395.89,461.18 c -5.09,-1.06 -11.9,1.2 -14.54,6 -2,3.6 -0.56,8.77 3.75,9.69 0.94,0.2 1.34,-1.25 0.4,-1.45 -4.54,-1 -4.16,-6.53 -1.54,-9.2 a 13.34,13.34 0 0 1 11.53,-3.55 c 0.95,0.2 1.35,-1.25 0.4,-1.45 z"
           inkscape:connector-curvature="0" />
        <path
           id="path1264"
           style="fill:#e8e8e8"
           transform="translate(-27.31,-29.29)"
           d="m 389.92,469.49 c 0,-2.79 3.29,-3.92 5.45,-2.63 a 5.85,5.85 0 0 1 2.13,2.39 6.61,6.61 0 0 1 0.56,1.54 c 0.25,1.12 0.35,3.79 -1.91,3.29 -0.94,-0.2 -1.34,1.24 -0.4,1.45 a 3.23,3.23 0 0 0 3.93,-3.06 7.72,7.72 0 0 0 -2.57,-6.18 c -3.07,-2.72 -8.68,-1.38 -8.69,3.2 a 0.75,0.75 0 0 0 1.5,0 z"
           inkscape:connector-curvature="0" />
        <path
           id="path1266"
           style="fill:#e8e8e8"
           transform="translate(-27.31,-29.29)"
           d="m 387.57,471.87 a 6.91,6.91 0 0 0 5.93,1.85 c 0.95,-0.14 0.55,-1.59 -0.4,-1.45 a 5.26,5.26 0 0 1 -4.46,-1.46 c -0.7,-0.67 -1.76,0.38 -1.07,1.06 z"
           inkscape:connector-curvature="0" />
        <path
           id="path1268"
           style="fill:#e8e8e8"
           transform="translate(-27.31,-29.29)"
           d="m 372.69,476.68 a 21.78,21.78 0 0 0 23.24,2.07 c 0.86,-0.43 0.11,-1.72 -0.76,-1.29 a 20.29,20.29 0 0 1 -21.72,-2.07 c -0.77,-0.59 -1.51,0.71 -0.76,1.29 z"
           inkscape:connector-curvature="0" />
        <path
           id="path1270"
           style="fill:#e8e8e8"
           transform="translate(-27.31,-29.29)"
           d="m 418.93,466.25 c -1.06,-13.73 24.74,-10.77 25.72,2.1 0.86,11.31 -13.17,15.94 -20.07,7.45 -0.6,-0.75 -1.66,0.32 -1.06,1.06 8.61,10.6 25.77,2.44 22.2,-11.05 -3.23,-12.23 -29.47,-14.72 -28.29,0.44 0.08,1 1.58,1 1.5,0 z"
           inkscape:connector-curvature="0" />
        <path
           id="path1272"
           style="fill:#e8e8e8"
           transform="translate(-27.31,-29.29)"
           d="m 431,466 a 4.48,4.48 0 0 0 2.15,-4 0.75,0.75 0 0 0 -0.95,-0.72 c -2.83,0.89 -6.41,2.13 -7.33,5.32 -0.67,2.31 0.3,5.05 2.75,5.7 a 0.75,0.75 0 0 0 0.4,-1.44 c -2.08,-0.55 -2.26,-3.3 -1.23,-4.87 1.24,-1.89 3.78,-2.63 5.81,-3.27 L 431.65,462 a 3,3 0 0 1 -1.4,2.75 c -0.81,0.53 -0.06,1.83 0.75,1.29 z"
           inkscape:connector-curvature="0" />
        <path
           id="path1274"
           style="fill:#e8e8e8"
           transform="translate(-27.31,-29.29)"
           d="m 437.81,468.5 a 3,3 0 0 1 -2.27,5.43 c -1,-0.17 -1.35,1.27 -0.4,1.45 a 4.48,4.48 0 0 0 3.43,-8.17 c -0.8,-0.55 -1.55,0.75 -0.76,1.29 z"
           inkscape:connector-curvature="0" />
        <path
           id="path1276"
           style="fill:#e8e8e8"
           transform="translate(-27.31,-29.29)"
           d="m 432.46,472.61 a 4.2,4.2 0 0 1 -3.49,5.17 c -1,0.1 -1,1.6 0,1.5 a 5.71,5.71 0 0 0 4.93,-7.07 0.75,0.75 0 0 0 -1.44,0.4 z"
           inkscape:connector-curvature="0" />
        <path
           id="path1278"
           style="fill:#e8e8e8"
           transform="translate(-27.31,-29.29)"
           d="m 27.67,186.79 c 23.25,14.37 47.13,29.08 74,35.69 28.46,7 58.4,2.81 87,-1.12 60.52,-8.31 120.08,-22.89 180.91,-29.08 34.4,-3.5 69.12,-4.14 103.43,0.59 0.94,0.13 1.35,-1.31 0.39,-1.45 -58.68,-8.08 -117.7,-0.37 -175.63,9.76 -29.57,5.17 -59,11 -88.7,15.65 -30.28,4.79 -62.5,10.69 -93.18,6.8 -32.15,-4.09 -60.4,-21.43 -87.43,-38.14 -0.83,-0.51 -1.58,0.79 -0.76,1.3 z"
           inkscape:connector-curvature="0" />
        <path
           id="path1280"
           style="fill:#e8e8e8"
           transform="translate(-27.31,-29.29)"
           d="m 167.37,147.49 c 42.31,16 88.41,10.7 131.5,0.92 23.2,-5.27 46.1,-11.8 69.32,-17 a 474.54,474.54 0 0 1 155.14,-9.06 c 1,0.11 1,-1.4 0,-1.5 a 478.33,478.33 0 0 0 -140.43,6 c -46.55,9 -91.73,25.6 -139.29,28.87 -25.67,1.76 -51.64,-0.49 -75.84,-9.62 -0.91,-0.34 -1.3,1.11 -0.4,1.44 z"
           inkscape:connector-curvature="0" />
        <path
           id="path1282"
           style="fill:#e8e8e8"
           transform="translate(-27.31,-29.29)"
           d="m 40.47,76.64 c 16.34,9.59 35.11,12.65 53.83,12.91 21.07,0.29 42.26,-2.16 63.14,-4.71 44.27,-5.41 88.13,-13.7 132.44,-18.85 a 621,621 0 0 1 74.65,-4.61 0.75,0.75 0 0 0 0,-1.5 c -86.79,-0.4 -171,24.43 -257.38,28 -22.61,0.93 -46,-0.81 -65.92,-12.51 a 0.75292762,0.75292762 0 0 0 -0.76,1.3 z"
           inkscape:connector-curvature="0" />
        <path
           id="path1284"
           style="fill:#e8e8e8"
           transform="translate(-27.31,-29.29)"
           d="m 269,43.76 c 66.06,5.73 131.71,-7.62 197.74,-6.58 a 334.92,334.92 0 0 1 57.49,5.56 c 0.95,0.18 1.35,-1.27 0.4,-1.45 -65.69,-12.52 -132.23,-0.49 -198.24,2 A 461.79,461.79 0 0 1 269,42.26 c -1,-0.09 -1,1.42 0,1.5 z"
           inkscape:connector-curvature="0" />
        <path
           id="path1286"
           style="fill:#222831;fill-opacity:1"
           transform="translate(-27.31,-29.29)"
           d="m 428.22,175.61 a 3.29,3.29 0 0 0 1.53,-5.26 c -1.58,-1.73 -4.52,-0.93 -5.39,1.1 -1,2.34 1.19,4.87 3.61,4.63 2.64,-0.25 3.77,-3.22 2.74,-5.42 a 1.51,1.51 0 0 0 -2,-0.54 1.53,1.53 0 0 0 -0.54,2 0.83,0.83 0 0 1 -0.35,0.92 0.56,0.56 0 0 1 -0.55,-0.2 c -0.15,-0.17 -0.13,-0.17 -0.11,-0.28 0,0.17 0.11,-0.11 0,-0.05 -0.11,0.06 0.39,-0.19 0.26,-0.15 0.23,-0.07 0,0 0.27,0 0,0 -0.18,0 -0.17,-0.07 0.01,-0.07 0.07,0.24 0,0 0,0.07 0,0.46 0,0.26 0,0.24 0,0 -0.11,0.23 0.08,-0.1 0.31,-0.15 0,-0.07 a 1.502839,1.502839 0 0 0 0.79,2.9 z"
           inkscape:connector-curvature="0" />
        <path
           id="path1288"
           style="fill:#222831;fill-opacity:1"
           transform="translate(-27.31,-29.29)"
           d="m 445.75,174.16 c -0.09,-0.16 -0.11,-0.16 -0.05,0 -0.05,-0.17 -0.05,-0.17 0,0 -0.13,0.36 0.14,-0.2 0,0.08 a 1.28,1.28 0 0 1 0.15,-0.25 c -0.08,0.11 -0.06,0.1 0.05,0 l -0.07,0.05 c 0.16,-0.08 0.17,-0.1 0,0 0.17,0 0.18,0 0,0 -0.18,0 -0.16,0 0,0 -0.08,0 -0.35,-0.21 -0.1,0 -0.1,-0.14 -0.1,-0.13 0,0 0,-0.14 -0.05,-0.16 0,-0.05 a 1.39,1.39 0 0 1 0.06,0.19 c 0,-0.17 0,-0.16 0,0 0,0.16 0,0.18 0,0 v 0.14 c 0,0.16 0,0.17 0,0 a 1.76,1.76 0 0 1 -0.14,0.23 c 0.12,-0.21 -0.15,0.05 0,-0.07 0.15,-0.12 0.09,0 -0.08,0 0.14,0 0.12,0 -0.07,0 -0.19,0 0.07,0.06 -0.23,0 -0.3,-0.06 -0.2,-0.07 -0.08,0 -0.15,-0.1 -0.18,-0.11 -0.1,0 0.08,0.11 -0.32,-0.33 -0.2,-0.18 -0.18,-0.23 -0.12,-0.2 -0.16,-0.37 -0.46,-1.88 -3.35,-1.09 -2.9,0.79 a 3.82,3.82 0 0 0 4.38,2.79 3.33,3.33 0 0 0 2.44,-4 3,3 0 0 0 -3.82,-2.33 c -1.72,0.63 -2.93,2.93 -1.73,4.56 a 1.55,1.55 0 0 0 2.06,0.54 1.5,1.5 0 0 0 0.53,-2.05 z"
           inkscape:connector-curvature="0" />
        <path
           id="path1290"
           style="fill:#222831;fill-opacity:1"
           transform="translate(-27.31,-29.29)"
           d="m 429.17,171.11 2.41,-9 a 41.1,41.1 0 0 1 1.1,-4.09 3.56,3.56 0 0 1 1.3,-2.68 c 0.45,-1.19 1.23,-1.41 2.31,-0.67 2,0 4.1,0.68 6.16,0.65 a 29.58,29.58 0 0 0 7.59,-1.17 l -0.94,-0.73 a 149.74,149.74 0 0 1 -3.93,19.35 0.75208045,0.75208045 0 0 0 1.45,0.4 152.46,152.46 0 0 0 4,-19.75 c 0.06,-0.49 -0.54,-0.84 -1,-0.72 a 27,27 0 0 1 -13,0.52 c -1.21,-0.25 -2.71,-1 -3.89,-0.15 -1.18,0.85 -1.65,4.86 -2,6.19 l -3.07,11.46 a 0.75208045,0.75208045 0 0 0 1.45,0.4 z"
           inkscape:connector-curvature="0" />
        <path
           id="path1292"
           style="fill:#222831;fill-opacity:1"
           transform="translate(-27.31,-29.29)"
           d="m 484.77,200 0.44,-0.74 a 0.74,0.74 0 0 0 0,-0.76 c -1.36,-2.39 -5,-1 -5.17,1.71 -0.17,2.71 3.15,3.21 4.7,1.44 1.55,-1.77 0.44,-4.7 -2,-4 -2.13,0.59 -1.64,3.35 0.41,3.68 a 0.77,0.77 0 0 0 0.73,-0.2 c 2.43,-3.12 3.22,-7.12 4.42,-10.83 l 4.92,-15.18 c 0.3,-0.92 -1.15,-1.32 -1.44,-0.4 L 488,186.34 c -1.32,4.09 -2.28,9.25 -4.5,12.93 -0.5,0.83 0.8,1.58 1.3,0.76 z"
           inkscape:connector-curvature="0" />
        <path
           id="path1294"
           style="fill:#222831;fill-opacity:1"
           transform="translate(-27.31,-29.29)"
           d="m 493.13,178 c 0.91,0.27 1.16,0.81 0.74,1.63 l -0.36,1.14 a 7.63,7.63 0 0 0 -0.27,1.24 4.61,4.61 0 0 0 0.59,3.13 3,3 0 0 0 4.07,1 0.75041655,0.75041655 0 0 0 -0.75,-1.3 c -1.59,0.92 -2.49,-1.07 -2.46,-2.31 a 14.42,14.42 0 0 1 0.69,-2.81 3.18,3.18 0 0 0 -0.68,-3.05 1.79,1.79 0 0 0 -2.87,2.07 c 0.44,0.86 1.74,0.1 1.3,-0.76 z"
           inkscape:connector-curvature="0" />
        <path
           id="path1296"
           style="fill:#222831;fill-opacity:1"
           transform="translate(-27.31,-29.29)"
           d="m 366.78,99.31 c 1.55,-1.67 1.21,-4.77 -1.09,-5.62 -2.09,-0.77 -4.71,0.86 -4.47,3.19 0.24,2.33 3.26,4 5.09,2.15 a 3.34,3.34 0 0 0 0.94,-2.89 2.5,2.5 0 0 0 -0.67,-1.38 C 366.07,94.32 365,94.33 364.36,94.2 a 0.77,0.77 0 0 0 -0.85,0.35 3.61,3.61 0 0 0 -0.27,2.64 0.76,0.76 0 0 0 1.1,0.45 2.07,2.07 0 0 0 0.49,-3.15 0.75,0.75 0 0 0 -1.06,0 c -0.82,0.72 -1.7,1.91 -0.87,3 a 1.43,1.43 0 0 0 2.35,0 c 0.57,-0.78 -0.73,-1.53 -1.3,-0.76 0.15,-0.21 0.21,-0.44 0.35,-0.65 a 3.66,3.66 0 0 1 0.53,-0.51 h -1.06 a 0.54,0.54 0 0 1 -0.19,0.8 l 1.11,0.44 a 2,2 0 0 1 0.12,-1.49 l -0.85,0.35 c 0.56,0.11 1.66,0 1.81,0.7 a 1.81,1.81 0 0 1 -0.38,1.47 c -0.95,1.16 -2.72,0.05 -2.69,-1.27 a 1.86,1.86 0 0 1 2.6,-1.4 2,2 0 0 1 0.42,3.1 c -0.65,0.71 0.41,1.78 1.06,1.06 z"
           inkscape:connector-curvature="0" />
        <path
           id="path1298"
           style="fill:#222831;fill-opacity:1"
           transform="translate(-27.31,-29.29)"
           d="M 366.85,97.18 369.14,77 c 0.11,-1 -1.4,-1 -1.5,0 l -2.29,20.21 c -0.11,0.95 1.4,0.95 1.5,0 z"
           inkscape:connector-curvature="0" />
        <path
           id="path1300"
           style="fill:#222831;fill-opacity:1"
           transform="translate(-27.31,-29.29)"
           d="m 438.58,90.12 c 2.05,-1.6 3.58,-3.87 1.31,-6 A 0.77,0.77 0 0 0 439,84 c -1.44,0.79 -3.05,2 -2.64,3.92 a 2.34,2.34 0 0 0 3.07,1.84 c 1.93,-0.59 2.51,-3.86 3,-5.4 l 4.93,-15.09 -1.26,0.33 a 10.59,10.59 0 0 0 10.9,2.21 l -0.85,-1.11 a 58.17,58.17 0 0 0 -5.09,13.79 c -0.63,2.94 -0.94,5.84 1.45,8 a 0.77,0.77 0 0 0 0.91,0.12 4.21,4.21 0 0 0 2.36,-5.27 0.76,0.76 0 0 0 -0.73,-0.55 5.15,5.15 0 0 0 -3.27,1.4 c -0.56,0.46 0,1.54 0.72,1.25 l 2.75,-1.13 -0.92,-0.92 -1.45,1 a 0.75208045,0.75208045 0 0 0 -0.4,1.45 2.36,2.36 0 0 0 3.29,-2 c 0.08,-0.49 -0.33,-1.17 -0.92,-0.93 l -2.73,1.09 0.73,1.26 c -0.92,0.77 -0.17,-5.07 -0.16,-5.1 0.28,-1.24 0.65,-2.47 1,-3.68 a 58.9,58.9 0 0 1 3.74,-9 c 0.27,-0.54 -0.19,-1.33 -0.85,-1.1 a 9.12,9.12 0 0 1 -9.46,-1.78 0.76,0.76 0 0 0 -1.25,0.33 l -3.37,10.33 c -1.21,3.71 -1.79,7.31 -5,9.82 -0.76,0.59 0.3,1.64 1.06,1.06 z"
           inkscape:connector-curvature="0" />
        <path
           id="path1302"
           style="fill:#f9813a;fill-opacity:1"
           transform="translate(-27.31,-29.29)"
           d="m 375.24,165.41 c -0.24,0 -0.32,-0.11 -0.08,0.05 -0.08,-0.06 -0.14,-0.12 0,0 a 1.28,1.28 0 0 1 -0.14,-0.23 c 0.1,0.22 -0.05,-0.21 -0.07,-0.31 0,0.33 0.07,-0.39 0,0 a 1.25,1.25 0 0 1 0.07,-0.26 c -0.06,0.17 0,0 0,0 -0.18,0.14 0,0 0,0 0,0 -0.09,0.12 -0.16,0.1 -0.07,-0.02 0.24,0 0.06,0 -0.18,0 0,0 0.06,0 -0.11,-0.1 0.24,0.19 0.2,0.15 l 0.18,0.25 a 0.79,0.79 0 0 1 0,0.13 c -0.07,-0.09 0,0.15 0,0.07 0,-0.08 0.2,-0.11 0,-0.05 h -0.07 c 0.08,0 -0.18,0 -0.19,0 -0.01,0 -0.41,-0.13 -0.32,-0.09 0.09,0.04 -0.13,-0.08 -0.14,-0.1 -0.17,-0.17 0.12,0.15 0,0 -0.12,-0.15 0,0 0,0 0,0 0,0 0,0.14 a 1.54,1.54 0 0 0 -1.5,-1.5 1.52,1.52 0 0 0 -1.5,1.5 3.3,3.3 0 0 0 1.7,2.63 3.87,3.87 0 0 0 2.85,0.35 c 2.39,-0.68 2.77,-3.58 1.22,-5.29 a 3.11,3.11 0 0 0 -5.3,0.82 c -0.67,1.81 0.26,4.23 2.28,4.63 a 1.54,1.54 0 0 0 1.84,-1.05 1.51,1.51 0 0 0 -1,-1.85 z"
           inkscape:connector-curvature="0" />
        <path
           id="path1304"
           style="fill:#f9813a;fill-opacity:1"
           transform="translate(-27.31,-29.29)"
           d="m 376.43,149.68 0.08,14.39 a 0.75,0.75 0 0 0 1.5,0 l -0.08,-14.39 a 0.75,0.75 0 0 0 -1.5,0 z"
           inkscape:connector-curvature="0" />
        <path
           id="path1306"
           style="fill:#f9813a;fill-opacity:1"
           transform="translate(-27.31,-29.29)"
           d="m 400.16,46.32 0.45,1.82 a 0.76,0.76 0 0 0 0.93,0.52 c 6.64,-2.33 -2.39,-8.23 -2.81,-3 a 2.59,2.59 0 0 0 4,2.16 c 1.73,-1.26 2.66,-5.36 3.46,-7.2 l 4.4,-10.17 -1.37,-0.18 a 8.12,8.12 0 0 0 11.49,4.44 l -1,-1 c -1.78,2.5 -8.53,12.29 -5.71,15.43 2.42,2.68 4.76,-1 5,-3.17 a 0.75,0.75 0 0 0 -0.37,-0.65 2.55,2.55 0 0 0 -3.25,0.1 0.75041655,0.75041655 0 0 0 0.75,1.3 h -1.3 c -1,0 -1,1.56 0,1.5 1.71,-0.09 3.86,-1.29 1.91,-2.91 a 0.79,0.79 0 0 0 -0.9,-0.11 l -0.46,0.2 0.75,1.3 c -0.67,0.46 -0.24,-2.56 -0.23,-2.6 a 17,17 0 0 1 1.83,-4.32 43.24,43.24 0 0 1 3.27,-5.37 c 0.45,-0.65 -0.41,-1.34 -1,-1 a 6.59,6.59 0 0 1 -9.28,-3.55 c -0.2,-0.52 -1.09,-0.83 -1.37,-0.18 l -4.09,9.45 -1.89,4.35 c -0.39,0.91 -1.2,4.55 -1.72,2.46 a 0.75208045,0.75208045 0 0 0 -1.45,0.4 z"
           inkscape:connector-curvature="0" />
        <path
           id="path1308"
           style="fill:#f9813a;fill-opacity:1"
           transform="translate(-27.31,-29.29)"
           d="m 412.87,112.46 a 0.75,0.75 0 0 0 0,-1.5 0.75,0.75 0 0 0 0,1.5 z"
           inkscape:connector-curvature="0" />
        <path
           id="path1310"
           style="fill:#f9813a;fill-opacity:1"
           transform="translate(-27.31,-29.29)"
           d="m 412.3,112.46 a 0.75,0.75 0 0 0 0,-1.5 0.75,0.75 0 0 0 0,1.5 z"
           inkscape:connector-curvature="0" />
        <path
           id="path1312"
           style="fill:#f9813a;fill-opacity:1"
           transform="translate(-27.31,-29.29)"
           d="m 413.08,112.51 a 2.57,2.57 0 0 0 -0.37,-4.49 c -2.65,-1 -4,2.36 -3.19,4.35 a 0.79,0.79 0 0 0 0.72,0.55 c 7.14,0.64 6,-15.07 5.59,-19 -0.09,-1 -1.59,-1 -1.5,0 a 43.91,43.91 0 0 1 0.14,7.86 31.08,31.08 0 0 1 -0.71,5 c -0.25,1.09 -0.59,3.86 -1.43,4.45 -0.84,0.59 0,1.84 0.75,1.29 z"
           inkscape:connector-curvature="0" />
        <path
           id="path1314"
           style="fill:#f9813a;fill-opacity:1"
           transform="translate(-27.31,-29.29)"
           d="m 416.94,95 c 0.33,-0.59 1,-0.08 1.23,0.21 0.55,0.6 0.34,1.4 0.19,2.12 a 15.93,15.93 0 0 0 -0.48,2.38 5.34,5.34 0 0 0 1.09,3.7 3.62,3.62 0 0 0 5.77,-0.14 c 0.55,-0.8 -0.75,-1.55 -1.3,-0.76 a 2.12,2.12 0 0 1 -3.25,0 4,4 0 0 1 -0.74,-3.28 c 0.23,-1.44 1,-3 0.31,-4.47 -0.69,-1.47 -3.15,-2.26 -4.11,-0.56 -0.48,0.84 0.82,1.6 1.29,0.76 z"
           inkscape:connector-curvature="0" />
        <path
           id="path1316"
           style="fill:#f9813a;fill-opacity:1"
           transform="translate(-27.31,-29.29)"
           d="m 440.47,244.28 c -0.86,-1.47 -3.49,-3 -3.17,-4.85 0.3,-1.69 1.48,-0.83 2.14,0.07 a 8.75,8.75 0 0 1 1.47,3.5 l 0.72,-0.95 -2.87,0.09 c -1,0 -1,1.53 0,1.5 l 2.87,-0.09 a 0.76,0.76 0 0 0 0.72,-1 c -0.37,-1.9 -2.92,-7.8 -5.67,-5.17 a 3.51,3.51 0 0 0 -0.72,3.51 c 0.59,1.66 2.35,2.61 3.21,4.1 a 0.75292762,0.75292762 0 0 0 1.3,-0.76 z"
           inkscape:connector-curvature="0" />
        <path
           id="path1318"
           style="fill:#f9813a;fill-opacity:1"
           transform="translate(-27.31,-29.29)"
           d="m 441.39,238.38 a 154.67,154.67 0 0 1 -6.82,-19 l -1.37,0.58 c 0.88,1.47 7.14,14.66 10.05,8.48 0.41,-0.86 -0.89,-1.63 -1.3,-0.75 -1.12,2.39 -4.61,-3.75 -4.88,-4.2 l -2.57,-4.29 a 0.76,0.76 0 0 0 -1.38,0.58 156.06,156.06 0 0 0 7,19.35 c 0.38,0.89 1.67,0.12 1.29,-0.75 z"
           inkscape:connector-curvature="0" />
        <circle
           id="circle1320"
           style="fill:#f9813a;fill-opacity:1"
           r="5.5"
           cy="217.86"
           cx="57.200001" />
        <circle
           id="circle1322"
           style="fill:none;stroke:#461eb8;stroke-width:0.5px;stroke-miterlimit:10"
           r="2.8"
           cy="85.209999"
           cx="65.489998" />
        <circle
           id="circle1324"
           style="fill:#f9813a;fill-opacity:1"
           r="4.0599999"
           cy="61.84"
           cx="476.25" />
        <circle
           id="circle1326"
           style="fill:#f9813a;fill-opacity:1"
           r="4.4299998"
           cy="252.59"
           cx="131.46001" />
        <circle
           id="circle1328"
           style="fill:#f9813a;fill-opacity:1"
           r="3.7"
           cy="71.07"
           cx="198.05" />
        <circle
           id="circle1330"
           style="fill:none;stroke:#ec615b;stroke-width:0.5px;stroke-miterlimit:10"
           r="5.5"
           cy="6.25"
           cx="194.88" />
        <circle
           id="circle1332"
           style="fill:#222831;fill-opacity:1"
           r="4.9899998"
           cy="142.56"
           cx="77.779999" />
        <circle
           id="circle1334"
           style="fill:#222831;fill-opacity:1"
           r="2.7"
           cy="209.66"
           cx="147.47" />
        <circle
           id="circle1336"
           style="fill:#222831;fill-opacity:1"
           r="3.9100001"
           cy="19.120001"
           cx="118.14" />
        <circle
           id="circle1338"
           style="fill:none;stroke:#ec615b;stroke-width:0.5px;stroke-miterlimit:10"
           r="3.6600001"
           cy="189.74001"
           cx="375.29999" />
        <circle
           id="circle1340"
           style="fill:none;stroke:#ec615b;stroke-width:0.5px;stroke-miterlimit:10"
           r="4.3800001"
           cy="149.69"
           cx="187.06" />
        <circle
           id="circle1342"
           style="fill:#222831;fill-opacity:1"
           r="3.47"
           cy="61.259998"
           cx="289.57999" />
      </g>
      <g
         id="guy">
        <g
           data-name="leg right"
           id="leg_right">
          <path
             id="path1345"
             transform="translate(-27.31,-29.29)"
             d="m 289.74,428.41 c -0.67,2 -1.31,4.27 -1.89,6.63 a 93.31,93.31 0 0 0 -1.78,9.3 46.26,46.26 0 0 1 12.65,5.44 45.37,45.37 0 0 1 5.91,4.36 c 1.54,2.82 3.74,6.82 6.42,11.61 4.16,7.46 6.28,11.26 8.43,14.78 2.35,3.85 5.74,9.13 10.26,15.26 a 7.38,7.38 0 0 0 3.71,-3.08 c 1.58,-2.86 0.32,-6.26 -0.23,-7.8 -3.84,-10.8 1.85,-2.05 -5.31,-20.19 a 304,304 0 0 0 -13,-28.43 z"
             inkscape:connector-curvature="0" />
          <path
             id="path1347"
             style="fill:#ffffff"
             transform="translate(-27.31,-29.29)"
             d="m 256,354.44 -7.06,-0.68 a 188.9,188.9 0 0 0 -43.13,-20.54 178.4,178.4 0 0 0 -45.3,-7.41 c -5,-0.14 -12.45,-0.09 -20.32,3.87 -2.75,1.38 -8.3,4.26 -12,10.43 -0.64,1.05 -2.88,4.93 -3.7,14.35 -0.61,7 -1.69,19.43 5.09,32.79 a 57,57 0 0 0 10.17,13.88 76.41,76.41 0 0 0 18.66,14.3 c 18.83,10.86 28.25,16.3 41.11,21.87 16.53,7.16 30.06,11.41 57.12,19.92 9.23,2.9 16.88,5.18 22,6.7 a 33.66,33.66 0 0 0 2.8,-4.7 34.86,34.86 0 0 0 3.29,-12.22 c 1.07,-11 3.71,-21.75 5.46,-32.64 3.95,-24.59 8,-24.95 6.45,-32 C 294.72,373.76 286.11,363 256,354.44 Z"
             inkscape:connector-curvature="0" />
          <path
             id="path1349"
             style="opacity:0.2;fill:#9e9e9e"
             transform="translate(-27.31,-29.29)"
             d="m 130.34,336.73 a 62.2,62.2 0 0 0 1.54,15.69 73.91,73.91 0 0 0 9.75,21.85 c 9.58,14.29 44.54,47.38 103.9,57.5 a 206.32,206.32 0 0 0 41,2.8 c -0.35,2.71 -0.78,5.51 -1.3,8.38 a 184.46,184.46 0 0 1 -4.65,19.72 c -5.45,-1.05 -13.85,-2.81 -24,-5.45 -30.25,-7.91 -49.7,-17.32 -88.59,-36.14 a 95.64,95.64 0 0 1 -28.3,-19.95 55.69,55.69 0 0 1 -10.82,-15.21 54.85,54.85 0 0 1 -4.87,-20.09 58.22,58.22 0 0 1 6.34,-29.1 z"
             inkscape:connector-curvature="0" />
          <path
             id="path1351"
             transform="translate(-27.31,-29.29)"
             d="m 248.45,352.07 a 178.35,178.35 0 0 0 -66.77,-25.21 c -17.61,-2.79 -46.29,-5.22 -55.17,14.8 -4.15,9.36 -3.59,21.15 -2.15,31 a 50.13,50.13 0 0 0 12.82,26.93 c 7,7.64 15.69,13.5 24.54,18.73 10.76,6.36 21.85,12.3 33.15,17.65 26.63,12.6 55.39,20.07 83.49,28.63 0.92,0.28 1.32,-1.17 0.4,-1.45 -22.39,-6.81 -45.18,-12.92 -67,-21.47 -20.36,-8 -40.88,-18.32 -58.91,-30.74 -8.39,-5.77 -16.32,-12.71 -21.42,-21.64 -5.57,-9.75 -6.81,-21.35 -6.43,-32.41 0.43,-12.44 5.07,-22.82 17.35,-27.33 10.8,-4 22.69,-3.44 33.92,-2 a 176.7,176.7 0 0 1 71.41,25.78 c 0.82,0.51 1.57,-0.78 0.75,-1.3 z"
             inkscape:connector-curvature="0" />
          <path
             id="path1353"
             transform="translate(-27.31,-29.29)"
             d="m 198.27,365.64 c 26.95,21.26 59.15,33.6 91,45.58 0.91,0.34 1.3,-1.11 0.4,-1.45 -31.55,-11.88 -63.57,-24.11 -90.3,-45.19 -0.75,-0.59 -1.82,0.46 -1.06,1.06 z"
             inkscape:connector-curvature="0" />
          <path
             id="path1355"
             transform="translate(-27.31,-29.29)"
             d="m 289.23,411.28 c 1.44,17.69 -5.44,34.28 -9.43,51.19 -0.22,0.94 1.23,1.34 1.45,0.4 4,-17.05 10.93,-33.76 9.48,-51.59 -0.07,-1 -1.57,-1 -1.5,0 z"
             inkscape:connector-curvature="0" />
          <path
             id="path1357"
             transform="translate(-27.31,-29.29)"
             d="m 285.69,445 c 4.58,1.95 9.53,3.6 13.87,6.05 5.41,3 7.4,8.5 10.12,13.73 a 263.61,263.61 0 0 0 17.85,29.35 c 0.55,0.78 1.85,0 1.3,-0.76 a 264.2,264.2 0 0 1 -19.54,-32.66 c -1.87,-3.7 -3.61,-7.35 -7.09,-9.79 -4.62,-3.25 -10.58,-5 -15.75,-7.21 -0.88,-0.38 -1.65,0.92 -0.76,1.29 z"
             inkscape:connector-curvature="0" />
          <path
             id="path1359"
             transform="translate(-27.31,-29.29)"
             d="m 289.54,429.13 c 6.46,1.87 12.93,3.72 19.39,5.61 5.26,1.53 7.39,4.59 9.2,9.53 l 3.66,10 c 2.43,6.65 4.88,13.29 7.3,19.95 1.22,3.34 8.18,20.83 0.65,20.84 a 0.75,0.75 0 0 0 0,1.5 c 12.66,0 -3.15,-33.52 -4.85,-38.16 l -5.31,-14.51 c -1,-2.76 -1.84,-6.22 -4.24,-8.17 -2.73,-2.23 -7.13,-2.73 -10.42,-3.68 l -15,-4.34 a 0.75208045,0.75208045 0 0 0 -0.4,1.45 z"
             inkscape:connector-curvature="0" />
        </g>
        <g
           data-name="leg left"
           id="leg_left">
          <path
             id="path1362"
             transform="translate(-27.31,-29.29)"
             d="m 309.7,447.57 -21,35.22 a 116.28,116.28 0 0 0 9.51,6.79 87,87 0 0 0 29.56,12.21 c 3,0.6 8.85,1.71 9.6,0 0.35,-0.76 -0.44,-1.94 -4.06,-5.62 -5.48,-5.58 -9.38,-8.77 -9.38,-8.77 -4.66,-3.81 -8.63,-7 -11.66,-9.4 l 11.25,-26.13 z"
             inkscape:connector-curvature="0" />
          <path
             id="path1364"
             style="fill:#ffffff"
             transform="translate(-27.31,-29.29)"
             d="m 293.37,441 c 1.32,-3.06 3.16,-7.16 5.54,-11.91 a 240,240 0 0 1 15.59,-26.61 c 10,-14.93 17.82,-26.72 31.24,-39.76 a 132.07,132.07 0 0 1 27.59,-20.94 77.74,77.74 0 0 1 26.38,-8.16 c 4.21,-0.48 8.57,-0.57 11.67,2.21 2.88,2.58 3.31,6.41 3.44,7.59 0.6,5.41 -2,9.63 -4.18,13.41 -10.27,17.53 -2.38,7.55 -10.85,19.89 -8.47,12.34 -14.25,19.28 -27.39,36.28 -10.28,13.28 -13.76,18.15 -17.7,24.82 a 173,173 0 0 0 -9.29,18.05 54.51,54.51 0 0 1 -6,1 57.74,57.74 0 0 1 -23.84,-2.29 56.36,56.36 0 0 1 -22.2,-13.58 z"
             inkscape:connector-curvature="0" />
          <path
             id="path1366"
             style="opacity:0.15;fill:#9e9e9e"
             transform="translate(-27.31,-29.29)"
             d="m 411.38,335.87 c -2.67,5.46 -6.31,12.54 -11,20.62 a 345,345 0 0 1 -31.21,45.36 343.73,343.73 0 0 1 -53.61,52.7 57.36,57.36 0 0 0 29.81,1.27 c 2.3,-4.69 5.85,-11.54 10.74,-19.5 6.7,-10.92 12.74,-18.75 19.73,-27.76 12.25,-15.81 13.83,-16.05 21.64,-27.4 8.61,-12.53 2.32,-5.89 13.12,-24.29 2,-3.35 4.93,-8.28 3.88,-14.16 a 15.86,15.86 0 0 0 -3.1,-6.84 z"
             inkscape:connector-curvature="0" />
          <path
             id="path1368"
             transform="translate(-27.31,-29.29)"
             d="M 294.38,439.83 A 328,328 0 0 1 327.72,385 c 11.7,-15.54 25.21,-30.34 42.1,-40.32 8.82,-5.21 19.13,-9.75 29.49,-10.2 7.27,-0.32 16,1.71 14.5,10.81 -0.84,5.21 -3.34,10.43 -5.6,15.15 -7.77,16.27 -19.16,30.44 -30.34,44.46 -12.27,15.39 -24.58,31 -32.48,49.15 -0.38,0.87 0.91,1.64 1.29,0.76 16,-36.8 50.07,-62.16 65.37,-99.32 2.53,-6.14 6.83,-16.25 -0.87,-20.56 -8.47,-4.74 -20.9,-1.09 -29.18,2.15 -18.52,7.22 -33.74,20.78 -46.47,35.74 -17,20 -31,42.69 -42.45,66.3 -0.42,0.87 0.88,1.63 1.3,0.76 z"
             inkscape:connector-curvature="0" />
          <path
             id="path1370"
             transform="translate(-27.31,-29.29)"
             d="m 294.8,443.89 a 59.48,59.48 0 0 0 50.81,12.66 c 0.94,-0.2 0.54,-1.65 -0.4,-1.45 a 57.87,57.87 0 0 1 -49.35,-12.27 c -0.73,-0.62 -1.8,0.44 -1.06,1.06 z"
             inkscape:connector-curvature="0" />
          <path
             id="path1372"
             transform="translate(-27.31,-29.29)"
             d="m 307,451 -16.11,25.31 c -0.52,0.82 0.78,1.57 1.3,0.76 l 16.1,-25.32 c 0.52,-0.81 -0.77,-1.57 -1.29,-0.75 z"
             inkscape:connector-curvature="0" />
          <path
             id="path1374"
             transform="translate(-27.31,-29.29)"
             d="m 320,456.56 -6.31,13.19 c -1,2.14 -3.68,5.74 -3.11,8.35 0.65,3 5,5.6 7.15,7.43 3.52,3 7.2,5.87 11,8.53 1,0.71 2,1.39 3,2.07 2.13,1.42 2.52,0.86 1.51,3.8 -1.01,2.94 -0.91,2.3 -3.36,1.67 -1.14,-0.3 -2.28,-0.61 -3.41,-0.93 A 130.08,130.08 0 0 1 299,489.19 a 37.06,37.06 0 0 1 -6.07,-3.63 c -1.62,-1.39 -3,-3.25 -2.66,-5.19 0.18,-1.24 1.7,-3.33 2.24,-4.38 0.44,-0.86 -0.85,-1.62 -1.29,-0.76 -1.35,2.63 -4.66,6.29 -2.5,9.22 1.22,1.65 4,2.79 5.7,3.81 q 4.16,2.52 8.5,4.73 a 131.75,131.75 0 0 0 15.6,6.7 c 4.64,1.64 11.07,4.69 16.08,4.29 2,-0.15 3.76,-1.15 3.66,-3.35 -0.15,-3.44 -5.8,-5.79 -8,-7.33 q -4.81,-3.35 -9.34,-7.07 c -1.95,-1.61 -6.51,-4.34 -7.54,-6.67 -1.03,-2.33 0.21,-6.09 1.24,-8.23 l 2,-4.12 4.74,-9.89 c 0.41,-0.87 -0.88,-1.63 -1.3,-0.76 z"
             inkscape:connector-curvature="0" />
        </g>
        <g
           data-name="arm right"
           id="arm_right">
          <path
             id="path1377"
             style="fill:#ffffff"
             transform="translate(-27.31,-29.29)"
             d="m 224.7,205.28 c -1.07,1.63 -2.62,4.09 -4.33,7.19 -6.48,11.77 -8.62,20.88 -12.34,35.8 -8.63,34.55 -10.69,39.86 -11.66,54 -0.38,5.49 -0.43,10 -0.42,13 a 60.14,60.14 0 0 0 35.17,-19.77 q 4.17,-9.13 8.76,-18.55 3.74,-7.65 7.51,-15 A 108.18,108.18 0 0 1 224.7,205.23 Z"
             inkscape:connector-curvature="0" />
          <path
             id="path1379"
             style="opacity:0.21000001;fill:#9e9e9e"
             transform="translate(-27.31,-29.29)"
             d="m 232.36,236.26 a 74.65,74.65 0 0 1 1.4,11.91 c 0.85,24.35 -10.66,43.38 -17.74,53 l 15.1,-5.69 q 8.13,-16.75 16.27,-33.52 z"
             inkscape:connector-curvature="0" />
          <path
             id="path1381"
             transform="translate(-27.31,-29.29)"
             d="m 224.05,204.9 c -10,14.92 -14,32.56 -18.44,49.7 -4.91,19.06 -9.42,38.24 -11.06,57.89 -0.08,1 1.42,1 1.5,0 1.63,-19.52 6.13,-38.56 11,-57.49 4.38,-17 8.39,-34.53 18.29,-49.34 0.54,-0.8 -0.76,-1.56 -1.3,-0.76 z"
             inkscape:connector-curvature="0" />
          <path
             id="path1383"
             transform="translate(-27.31,-29.29)"
             d="m 243.22,269.55 a 201.28,201.28 0 0 0 -19.22,43.87 0.75,0.75 0 0 0 1.44,0.4 199.7,199.7 0 0 1 19.05,-43.51 0.75292762,0.75292762 0 0 0 -1.3,-0.76 z"
             inkscape:connector-curvature="0" />
        </g>
        <g
           id="torso">
          <path
             id="path1386"
             style="fill:#f9813a;fill-opacity:1"
             transform="translate(-27.31,-29.29)"
             d="m 224.7,205.28 c 0.18,9.09 0.66,21.69 2,36.68 1.72,19.72 3.11,35.66 8.06,55 a 235.11,235.11 0 0 0 17.6,46.93 60.33,60.33 0 0 0 34.1,16.5 c 26.48,3.25 45.17,-13.16 48,-15.77 a 500.2,500.2 0 0 0 14.66,-95 c 1,-17.34 1,-33.65 0.39,-48.79 a 101.09,101.09 0 0 0 -56.12,-19.78 c -37.19,-1.26 -62.55,19.03 -68.69,24.23 z"
             inkscape:connector-curvature="0" />
        </g>
        <g
           data-name="arm left"
           id="arm_left">
          <path
             id="path1389"
             style="fill:#ffffff"
             transform="translate(-27.31,-29.29)"
             d="m 347.13,198.57 a 86.65,86.65 0 0 0 -9.35,17.59 89.75,89.75 0 0 0 -5.14,44.33 210,210 0 0 0 3.75,21 c 2.18,9.38 4.53,16.54 6.59,22.79 2,6 3.86,11.08 5.3,14.82 a 35.64,35.64 0 0 0 6.05,4.75 c 5.07,3.15 10.39,4.66 18.91,5.59 9.13,1 20.92,2.28 35.76,-1.53 11.3,-2.89 17.3,-6.93 18.83,-8 a 50,50 0 0 0 8.19,-7.15 l -14.23,-5.37 a 50.21,50.21 0 0 1 -12.62,-1.34 c -7.4,-1.76 -10.27,-4.26 -17.44,-5.9 A 47.77,47.77 0 0 0 378,299.1 c -0.62,-8 -1.73,-19.47 -3.82,-33.31 -2.4,-15.93 -3.67,-24.09 -6.92,-33.2 a 105.94,105.94 0 0 0 -20.13,-34.02 z"
             inkscape:connector-curvature="0" />
          <path
             id="path1391"
             style="opacity:0.22000002;fill:#9e9e9e"
             transform="translate(-27.31,-29.29)"
             d="M 344.51,202.62 A 158.8,158.8 0 0 0 340.44,234 c -0.34,11.6 -0.72,24.6 3.92,39.1 2.94,9.19 10.4,32.48 33.55,44.18 22.19,11.2 44.4,4.48 49.92,2.63 a 81,81 0 0 1 -34,10.4 81.86,81.86 0 0 1 -42.9,-8.68 137.71,137.71 0 0 1 -7.13,-14.85 145.91,145.91 0 0 1 -8,-27.87 c -3.11,-16.18 -5.46,-28.44 -3,-44 a 92,92 0 0 1 11.71,-32.29 z"
             inkscape:connector-curvature="0" />
          <path
             id="path1393"
             transform="translate(-27.31,-29.29)"
             d="m 346.6,199.1 c 27.23,25.5 25.62,65.55 30.82,99.59 0.15,0.95 1.59,0.55 1.45,-0.4 C 373.63,264 375.12,223.76 347.66,198 c -0.7,-0.66 -1.76,0.4 -1.06,1.06 z"
             inkscape:connector-curvature="0" />
          <path
             id="path1395"
             transform="translate(-27.31,-29.29)"
             d="m 331.89,260.49 a 221.35,221.35 0 0 0 15.88,58.12 c 0.37,0.88 1.67,0.12 1.29,-0.76 a 218.39,218.39 0 0 1 -15.67,-57.36 c -0.13,-0.94 -1.63,-0.95 -1.5,0 z"
             inkscape:connector-curvature="0" />
          <path
             id="path1397"
             transform="translate(-27.31,-29.29)"
             d="m 374.28,301.81 c 16.68,-5.47 32.71,9.72 49.32,6.39 0.94,-0.19 0.54,-1.64 -0.4,-1.45 -9.08,1.83 -19.72,-3 -28.46,-5.29 -6.94,-1.83 -13.84,-3.4 -20.86,-1.1 -0.91,0.3 -0.52,1.75 0.4,1.45 z"
             inkscape:connector-curvature="0" />
          <path
             id="path1399"
             transform="translate(-27.31,-29.29)"
             d="m 347.75,319.66 c 9.49,10.09 27,11.71 40,11.62 a 93.69,93.69 0 0 0 44.43,-11.6 c 0.85,-0.47 0.09,-1.76 -0.75,-1.3 a 92.13,92.13 0 0 1 -42,11.38 c -13,0.32 -31.16,-1.07 -40.65,-11.16 -0.66,-0.71 -1.72,0.36 -1.06,1.06 z"
             inkscape:connector-curvature="0" />
        </g>
        <g
           id="guitar">
          <path
             id="path1402"
             style="fill:#ffffff"
             transform="translate(-27.31,-29.29)"
             d="m 369,299 q 27,-7.5 55.07,-16 26.33,-8 51.44,-16.25 a 20.1,20.1 0 0 1 0,-8.55 c 1.86,-8.34 8.63,-12.79 10.34,-13.85 l -2.82,-8 6.57,-2 2.67,7.32 a 22.25,22.25 0 0 1 7.29,3.54 c 2.25,1.69 3,3 5.07,3.42 2.41,0.48 4.56,-0.75 5.8,-1.46 4.36,-2.5 4.43,-5.75 9.07,-9.44 a 22.12,22.12 0 0 1 4.24,-2.63 l -1.65,-8.9 5.47,-1.82 2.55,8.21 a 14.44,14.44 0 0 1 6.9,-0.09 14.91,14.91 0 0 1 8.43,5.81 c 1.06,1.36 4.44,5.72 3.44,11.59 a 14.56,14.56 0 0 1 -5.3,8.71 l 0.66,6.37 a 6.73,6.73 0 0 1 -5.05,1.37 6.52,6.52 0 0 1 -5.19,-5 33.1,33.1 0 0 0 -8.52,2.87 c -3.28,1.64 -5.52,2.76 -7.13,5.18 -1.83,2.73 -1,4.28 -2.76,7.47 a 14.81,14.81 0 0 1 -4.93,5.1 c 1.19,1.79 2.37,3.58 3.56,5.36 l -6.7,3.22 c -0.27,-1.95 -1,-4.7 -3.15,-5.92 -2.38,-1.33 -4.07,0.53 -8.89,0 -3.42,-0.37 -6.15,-1.7 -9.26,-3.22 a 42.06,42.06 0 0 1 -4.44,-2.51 q -23.47,9 -47.25,18.5 -28.66,11.36 -56.53,22.85 -4.54,-10.63 -9,-21.25 z"
             inkscape:connector-curvature="0" />
          <path
             id="path1404"
             style="opacity:0.18999999;fill:#9e9e9e"
             transform="translate(-27.31,-29.29)"
             d="M 374.18,311.33 485.87,272 c 5.39,5.85 9.48,6.83 12.27,6.58 8.18,-0.76 8.39,-12.43 20,-17.91 8.84,-4.19 14.16,0 20.93,-4.89 5.32,-3.87 7.2,-10.26 7.94,-15.27 0.64,0.89 4.1,5.83 2.45,11.41 -1.29,4.36 -5,6.65 -6.72,7.71 -8,4.81 -13.24,0.08 -19.07,4.3 -4.44,3.22 -2.24,6.58 -8.06,12.87 -1.41,1.53 -5.25,5.68 -11,7.36 -10.51,3.08 -20.34,-4.15 -21.78,-5.24 l -103.62,40.6 z"
             inkscape:connector-curvature="0" />
          <path
             id="path1406"
             transform="translate(-27.31,-29.29)"
             d="m 369.15,299.7 q 55.46,-15.79 110.55,-32.79 c 0.92,-0.29 0.52,-1.74 -0.4,-1.45 q -55.1,17 -110.55,32.79 a 0.75208045,0.75208045 0 0 0 0.4,1.45 z"
             inkscape:connector-curvature="0" />
          <path
             id="path1408"
             transform="translate(-27.31,-29.29)"
             d="m 378.16,321 q 54.06,-22.61 109.08,-42.81 c 0.9,-0.33 0.51,-1.78 -0.4,-1.44 q -55,20.2 -109.08,42.8 c -0.88,0.37 -0.49,1.82 0.4,1.45 z"
             inkscape:connector-curvature="0" />
          <path
             id="path1410"
             transform="translate(-27.31,-29.29)"
             d="m 477.71,266 c -5.34,-9.78 5.27,-22.75 15.82,-22.45 6.39,0.18 9,8.4 15.89,5 2.89,-1.41 4.57,-4.18 6.57,-6.55 a 27.2,27.2 0 0 1 9.63,-7.11 c 5,-2.26 10.73,-3.08 15.54,0.15 A 13.27,13.27 0 0 1 547,247 c 0,1 1.45,1 1.5,0 a 14.89,14.89 0 0 0 -13.15,-15.56 c -4.47,-0.42 -8.87,1.21 -12.72,3.33 -4.61,2.53 -7.06,6.05 -10.58,9.78 -2.52,2.67 -4.1,3.41 -7.63,2.29 a 14.29,14.29 0 0 1 -5.13,-2.8 10.33,10.33 0 0 0 -4.2,-1.86 c -3.82,-0.68 -7.79,1 -10.94,3 -7.33,4.68 -12.33,13.21 -7.78,21.55 0.46,0.85 1.76,0.09 1.3,-0.76 z"
             inkscape:connector-curvature="0" />
          <path
             id="path1412"
             transform="translate(-27.31,-29.29)"
             d="m 483.21,279.83 c 8,9.53 28.94,7.93 33.71,-4.25 1.06,-2.72 1.44,-5.65 3.56,-7.85 a 16.88,16.88 0 0 1 7.67,-4 c 4.25,-1.2 8.76,-1.45 12.89,-3.07 5.69,-2.23 10.38,-7.83 7.61,-14 -0.39,-0.88 -1.68,-0.12 -1.29,0.75 4.88,10.95 -11.65,13 -18.22,14.54 -4.43,1.06 -9.08,3 -11.47,7.09 -1.76,3 -1.73,6.78 -4.14,9.5 -2.41,2.72 -5.82,4.12 -9.17,5 -7,1.82 -15.2,1.14 -20.09,-4.71 -0.62,-0.74 -1.67,0.33 -1.06,1.06 z"
             inkscape:connector-curvature="0" />
          <path
             id="path1414"
             transform="translate(-27.31,-29.29)"
             d="m 521,226.93 a 20.61,20.61 0 0 0 3.12,7.4 c 0.54,0.79 1.84,0 1.3,-0.76 a 19.24,19.24 0 0 1 -3,-7 c -0.2,-0.94 -1.64,-0.54 -1.45,0.4 z"
             inkscape:connector-curvature="0" />
          <path
             id="path1416"
             transform="translate(-27.31,-29.29)"
             d="m 522.59,226.72 a 5.92,5.92 0 0 1 4.94,-1.6 l -0.73,-0.55 2.55,8.21 c 0.29,0.91 1.74,0.52 1.45,-0.4 l -2.55,-8.21 a 0.78,0.78 0 0 0 -0.72,-0.55 7.28,7.28 0 0 0 -6,2 c -0.7,0.67 0.36,1.73 1.06,1.06 z"
             inkscape:connector-curvature="0" />
          <path
             id="path1418"
             transform="translate(-27.31,-29.29)"
             d="m 534.81,262.65 c 1.2,0.54 1.22,2.13 1.84,3.16 a 3.74,3.74 0 0 0 2.14,1.64 4.32,4.32 0 0 0 4.92,-1.65 c 0.54,-0.8 -0.76,-1.56 -1.29,-0.76 a 2.77,2.77 0 0 1 -4.57,-0.16 c -0.72,-1.31 -0.75,-2.84 -2.29,-3.53 -0.87,-0.39 -1.63,0.9 -0.75,1.3 z"
             inkscape:connector-curvature="0" />
          <path
             id="path1420"
             transform="translate(-27.31,-29.29)"
             d="m 541.94,259.67 a 7.58,7.58 0 0 0 1.74,5.83 c 0.61,0.75 1.67,-0.32 1.06,-1.06 a 6.17,6.17 0 0 1 -1.3,-4.77 c 0.12,-1 -1.38,-0.95 -1.5,0 z"
             inkscape:connector-curvature="0" />
          <path
             id="path1422"
             transform="translate(-27.31,-29.29)"
             d="m 482.84,237.39 a 19.9,19.9 0 0 0 2.34,7.31 c 0.46,0.84 1.76,0.09 1.29,-0.76 a 18.09,18.09 0 0 1 -2.13,-6.55 c -0.12,-0.94 -1.62,-0.95 -1.5,0 z"
             inkscape:connector-curvature="0" />
          <path
             id="path1424"
             transform="translate(-27.31,-29.29)"
             d="m 483.38,237 a 11.33,11.33 0 0 1 6.19,-1.87 l -0.75,-0.75 a 14,14 0 0 0 2.77,7.7 c 0.57,0.76 1.87,0 1.29,-0.76 a 12.52,12.52 0 0 1 -2.56,-6.94 0.77,0.77 0 0 0 -0.75,-0.75 12.81,12.81 0 0 0 -6.95,2.08 c -0.8,0.52 -0.05,1.82 0.76,1.29 z"
             inkscape:connector-curvature="0" />
          <path
             id="path1426"
             transform="translate(-27.31,-29.29)"
             d="m 503.81,285.06 a 10.68,10.68 0 0 0 3.29,6.13 c 0.7,0.66 1.76,-0.4 1.06,-1.06 a 9.39,9.39 0 0 1 -2.9,-5.47 c -0.15,-1 -1.6,-0.55 -1.45,0.4 z"
             inkscape:connector-curvature="0" />
          <path
             id="path1428"
             transform="translate(-27.31,-29.29)"
             d="m 509.88,281.94 a 9.19,9.19 0 0 0 3.25,6.31 c 0.73,0.62 1.8,-0.43 1.06,-1.06 a 7.74,7.74 0 0 1 -2.81,-5.25 c -0.08,-0.95 -1.58,-1 -1.5,0 z"
             inkscape:connector-curvature="0" />
          <path
             id="path1430"
             transform="translate(-27.31,-29.29)"
             d="m 513.54,286.93 a 6.53,6.53 0 0 1 -4.42,2.45 c -0.94,0.1 -1,1.6 0,1.5 a 8.18,8.18 0 0 0 5.72,-3.2 c 0.58,-0.76 -0.72,-1.51 -1.3,-0.75 z"
             inkscape:connector-curvature="0" />
          <path
             id="path1432"
             style="fill:#ffffff;stroke:#000000;stroke-miterlimit:10"
             transform="translate(-27.31,-29.29)"
             d="m 313.4,274.88 a 52.51,52.51 0 0 0 -33.48,23.12 106.32,106.32 0 0 0 -16,5 53.71,53.71 0 0 0 -33.22,-3.61 52.94,52.94 0 0 0 -40.57,63.82 c 6.57,29.13 35.4,47.78 64.39,41.66 a 52.5,52.5 0 0 0 33.82,-23.62 109.64,109.64 0 0 0 11.74,-1.82 q 3.26,-0.69 6.39,-1.55 a 53.65,53.65 0 0 0 30.75,2.57 53,53 0 0 0 40.57,-63.82 c -6.57,-29.22 -35.4,-47.87 -64.39,-41.75 z"
             inkscape:connector-curvature="0" />
          <ellipse
             id="ellipse1434"
             ry="23.92"
             rx="24.74"
             cy="323.10999"
             cx="217.44" />
          <line
             id="line1436"
             style="fill:none;stroke:#000000;stroke-miterlimit:10"
             y2="213.56"
             x2="520.54999"
             y1="315.66"
             x1="210.88" />
          <line
             id="line1438"
             style="fill:none;stroke:#000000;stroke-miterlimit:10"
             y2="217.75"
             x2="520.47998"
             y1="315.66"
             x1="230.77" />
          <line
             id="line1440"
             style="fill:none;stroke:#000000;stroke-miterlimit:10"
             y2="220.60001"
             x2="521.53998"
             y1="321.29999"
             x1="235.25" />
          <line
             id="line1442"
             style="fill:none;stroke:#000000;stroke-miterlimit:10"
             y2="222.66"
             x2="522.09998"
             y1="329.19"
             x1="235.81" />
          <path
             id="path1444"
             style="opacity:0.21000001;fill:#9e9e9e"
             transform="translate(-27.31,-29.29)"
             d="m 306.17,376.24 a 39,39 0 0 0 9.08,0.36 c 3.12,-0.24 11.32,-1.25 22.31,-8.77 5.58,-3.82 31.28,-21.41 33.46,-51.6 a 58.34,58.34 0 0 0 -1.84,-19.13 49.06,49.06 0 0 1 7.75,16.12 c 6.19,23.2 -5.48,51.87 -27.64,63 -3.14,1.59 -16,8.06 -31.32,4.63 a 41.49,41.49 0 0 1 -11.8,-4.61 z"
             inkscape:connector-curvature="0" />
          <path
             id="path1446"
             style="opacity:0.23999999;fill:#9e9e9e"
             transform="translate(-27.31,-29.29)"
             d="m 192.27,332.16 a 67.11,67.11 0 0 0 4.49,18 c 1.46,3.59 9,21.46 25.63,31.6 18.4,11.25 43.67,10.4 65.58,-0.94 a 51.3,51.3 0 0 1 -22.75,20.45 c -19.93,8.85 -45,3.65 -60.74,-11.85 a 53.43,53.43 0 0 1 -12.21,-57.26 z"
             inkscape:connector-curvature="0" />
        </g>
        <g
           data-name="hand left"
           id="hand_left">
          <path
             id="path1449"
             style="fill:#f9f9f9"
             transform="translate(-27.31,-29.29)"
             d="m 423.93,308 c 4.28,-3.92 5.72,-7.51 6.19,-10.19 0.59,-3.32 -0.06,-6.64 2,-11.43 1.31,-3 2.2,-3.15 2.5,-3.13 1.1,0 1.83,2.22 2.31,3.68 a 25.44,25.44 0 0 1 1,10.26 8.33,8.33 0 0 0 3,-2.28 c 1.86,-2.3 1.92,-5.13 1.63,-9.45 -0.6,-9.27 -2.07,-14.77 -0.23,-15.73 0.58,-0.3 1,0.09 3.16,-0.24 a 15.47,15.47 0 0 0 2.8,-0.7 4.89,4.89 0 0 1 3,0 c 1.66,0.57 2.57,2.08 3.4,3.92 a 39,39 0 0 1 3,11.72 c 0.72,-6.25 2.57,-10.63 4.76,-10.8 1.33,-0.1 2.53,1.37 2.9,1.82 2,2.49 1.52,5.87 1.17,7.93 a 22.91,22.91 0 0 1 -4.09,9.47 97.4,97.4 0 0 1 -15.64,17.24 c -6.26,5.34 -11,8.23 -16.68,9.52 -2.57,0.58 -4.52,0.66 -5.87,-0.43 C 422,317.38 421.91,313 423.93,308 Z"
             inkscape:connector-curvature="0" />
          <path
             id="path1451"
             style="opacity:0.26000001;fill:#9e9e9e"
             transform="translate(-27.31,-29.29)"
             d="m 463.72,274 a 43.67,43.67 0 0 1 -3.55,13.92 c -1.45,3.27 -3.7,7.23 -8.74,12.83 a 98.72,98.72 0 0 1 -24.28,19.37 46.41,46.41 0 0 0 10.26,-3.33 c 10.37,-4.74 16.29,-12.08 20,-16.75 a 56.18,56.18 0 0 0 6.89,-11.55 c 3.21,-7.17 2.69,-10 1.84,-11.72 A 7.88,7.88 0 0 0 463.72,274 Z"
             inkscape:connector-curvature="0" />
          <path
             id="path1453"
             transform="translate(-27.31,-29.29)"
             d="m 424.46,308.51 c 3.45,-3.06 6.61,-6 6.41,-10.72 -0.13,-3.27 -0.27,-8.65 2.08,-11.4 l 0.75,-1.32 a 3.75,3.75 0 0 1 2.85,3.86 c 0.71,2.23 0.43,4.88 0.26,7.17 -0.07,1 1.43,1 1.5,0 0.13,-1.75 0.19,-16.71 -5.06,-13.05 -2.4,1.68 -3.61,7.61 -3.88,10.2 -0.26,2.41 0.67,5.51 -0.25,7.76 -1,2.47 -3.76,4.7 -5.72,6.44 -0.73,0.64 0.34,1.7 1.06,1.06 z"
             inkscape:connector-curvature="0" />
          <path
             id="path1455"
             transform="translate(-27.31,-29.29)"
             d="m 438.35,297.82 c 5.44,-2.56 5.3,-8.41 4.61,-13.6 a 59.66,59.66 0 0 1 -0.77,-8.12 33.83,33.83 0 0 1 0.28,-4.71 q 4.56,-1.31 5,3.21 a 31.43,31.43 0 0 1 1.63,14.89 c -0.11,1 1.39,0.95 1.5,0 a 32.19,32.19 0 0 0 -2.32,-16.87 c -0.81,-1.8 -2.34,-5.23 -5,-4.5 -3,0.83 -2.61,5.79 -2.6,8 0,6.33 4.34,16.93 -3.1,20.42 -0.87,0.41 -0.11,1.7 0.76,1.3 z"
             inkscape:connector-curvature="0" />
          <path
             id="path1457"
             transform="translate(-27.31,-29.29)"
             d="m 448,270.84 q 4.29,-2 5.75,1.72 l 0.67,1.17 a 20.64,20.64 0 0 1 2,5.49 22.12,22.12 0 0 1 -0.45,10.9 0.75208045,0.75208045 0 0 0 1.45,0.4 c 1.86,-6.65 1.06,-14.16 -3.11,-19.84 -2.08,-2.85 -7.23,-4.87 -7.8,0.16 -0.11,1 1.39,1 1.5,0 z"
             inkscape:connector-curvature="0" />
          <path
             id="path1459"
             transform="translate(-27.31,-29.29)"
             d="m 459.16,285.66 c 0.11,-1.71 1,-10.3 3.27,-10.89 3.65,-1 2.52,7.23 2.25,8.89 -1.06,6.63 -4.64,12.38 -9.13,17.26 -7.44,8.09 -17.4,16.79 -28.59,18.44 -1,0.14 -0.55,1.58 0.39,1.45 8.27,-1.22 15,-6.06 21.21,-11.31 6.54,-5.5 12.91,-11.71 16.05,-19.83 1.26,-3.26 4.45,-14.87 -0.22,-17 -4.89,-2.21 -6.56,10.35 -6.73,13 -0.06,1 1.44,1 1.5,0 z"
             inkscape:connector-curvature="0" />
        </g>
        <g
           data-name="hand right"
           id="hand_right">
          <path
             id="path1462"
             style="fill:#f9f9f9"
             transform="translate(-27.31,-29.29)"
             d="m 195.29,311.65 c 0.27,-1 2.7,-9.25 10.81,-12.39 a 17.69,17.69 0 0 1 10.66,-0.57 c 9.88,4.2 15.24,9.62 18.31,13.81 4.83,6.57 4.88,11.31 10.12,18.51 a 46.86,46.86 0 0 0 15,13.18 c 3,-0.63 7,-1.48 11.83,-2.41 3.83,-0.75 6.68,-1.27 10.37,-0.71 1.49,0.22 5.39,0.82 5.61,2.21 0.39,2.46 -10.89,5.32 -10.6,6.4 0.21,0.81 7.14,1.44 13.37,-1.92 2.89,-1.56 5.3,-3.8 10,-4.71 2,-0.39 3.26,-0.3 3.89,0.43 1.12,1.29 -0.22,4 -0.47,4.5 -1.62,3.28 -5,4.61 -6.47,5.09 a 10.37,10.37 0 0 1 6.14,0.82 c 2.84,1.38 5.78,4.58 5.27,7.58 a 5.34,5.34 0 0 1 -2,3.06 c -5.64,4.8 -20.39,4.16 -23.07,4 8.37,6 9.63,8.26 9.18,9.23 -0.69,1.48 -5.73,0.58 -6.19,0.5 a 20,20 0 0 1 -7.68,-3.37 100.55,100.55 0 0 0 -14.37,-7.44 c -5.72,-2.4 -9.86,-2.65 -13.46,-3.27 -12.92,-2.22 -22.87,-9.89 -29.19,-14.76 -16.42,-12.68 -23.92,-29.26 -27.06,-37.77 z"
             inkscape:connector-curvature="0" />
          <path
             id="path1464"
             style="opacity:0.25;fill:#9e9e9e"
             transform="translate(-27.31,-29.29)"
             d="m 196.2,311.18 a 74.53,74.53 0 0 0 11.87,16.4 80.66,80.66 0 0 0 14.3,11.61 c 14.71,10 25,16.95 40.69,22 12.5,4 18.75,6 26.83,4.09 8.52,-2.05 15.89,-7.72 17.89,-5.5 1,1.08 0.14,3.49 -0.62,4.77 -0.64,1.08 -2.29,3.12 -9.33,4.3 a 46,46 0 0 1 -14.8,0 c 8.79,4.27 10.43,6.46 10.14,7.68 -0.32,1.38 -3.2,2 -5.12,2 -4.36,0.09 -7.34,-2.55 -10.38,-4.68 -2.63,-1.83 -6.77,-3.55 -15.05,-7 -10.41,-4.32 -11.74,-2.46 -20.24,-5.79 -8.24,-3.23 -13.46,-7.51 -20.89,-13.61 -6.52,-5.35 -12,-9.83 -17.05,-17.56 a 62.19,62.19 0 0 1 -8.24,-18.71 z"
             inkscape:connector-curvature="0" />
          <path
             id="path1466"
             transform="translate(-27.31,-29.29)"
             d="m 194.52,311.85 a 84.28,84.28 0 0 0 65.42,54.86 c 0.94,0.15 1.35,-1.3 0.4,-1.45 A 82.77,82.77 0 0 1 196,311.45 c -0.32,-0.91 -1.77,-0.52 -1.45,0.4 z"
             inkscape:connector-curvature="0" />
          <path
             id="path1468"
             transform="translate(-27.31,-29.29)"
             d="m 223.43,302.62 c 9.51,6.59 14.54,15.45 19.5,25.62 3.64,7.49 8.56,13.2 16.58,16.07 0.91,0.33 1.3,-1.12 0.4,-1.45 -10.59,-3.79 -14.14,-12.61 -18.79,-21.88 a 51.24,51.24 0 0 0 -16.94,-19.65 c -0.79,-0.55 -1.54,0.75 -0.75,1.29 z"
             inkscape:connector-curvature="0" />
          <path
             id="path1470"
             transform="translate(-27.31,-29.29)"
             d="m 259.62,345 c 6.71,-1 13.44,-2.25 20.19,-2.95 0.87,-0.09 8.28,-1.11 5.73,3.06 -0.31,0.5 -2.94,0.77 -3.53,1 a 19.16,19.16 0 0 0 -5.1,3.06 c -0.76,0.59 0.31,1.65 1.06,1.06 2.71,-2.14 5.69,-2.38 8.55,-3.89 0.81,-0.43 1.42,-0.46 1.94,-1.47 0.93,-1.8 -0.3,-3.11 -1.84,-3.85 -2.9,-1.41 -6.66,-0.53 -9.69,-0.09 -5.91,0.86 -11.81,1.76 -17.71,2.63 -1,0.14 -0.55,1.59 0.4,1.45 z"
             inkscape:connector-curvature="0" />
          <path
             id="path1472"
             transform="translate(-27.31,-29.29)"
             d="m 259.64,367.3 c 11.43,0.61 19.17,11.73 30.43,12.33 2,0.11 4.39,-0.45 3.92,-3 -0.21,-1.13 -1.26,-1.76 -2.05,-2.46 -2.53,-2.26 -5.75,-4.06 -8.53,-6 -0.79,-0.56 -1.54,0.74 -0.76,1.29 1.7,1.19 4.36,2.44 5.69,4 2,0.78 2.28,2.27 0.76,4.48 a 20.9,20.9 0 0 1 -2.67,-0.68 48.66,48.66 0 0 1 -9.85,-4.9 c -5.36,-3.17 -10.57,-6.26 -16.94,-6.6 -1,-0.05 -1,1.45 0,1.5 z"
             inkscape:connector-curvature="0" />
          <path
             id="path1474"
             transform="translate(-27.31,-29.29)"
             d="m 278,351.61 c 7,0.32 12.69,-3.26 19,-5.75 1,-0.41 3.18,-1.62 4.38,-1.46 6.52,0.89 0.41,5.16 -1.43,6.33 a 28.38,28.38 0 0 1 -10.77,4.15 c -0.95,0.14 -0.55,1.58 0.4,1.45 a 28.37,28.37 0 0 0 13.36,-5.89 c 1.47,-1.25 4.41,-4.35 3.25,-6.57 -1.61,-3.08 -7.62,-0.23 -9.59,0.54 -6.16,2.42 -11.73,6 -18.59,5.7 -1,0 -1,1.46 0,1.5 z"
             inkscape:connector-curvature="0" />
          <path
             id="path1476"
             transform="translate(-27.31,-29.29)"
             d="m 283.29,369.11 c 7.45,1.93 21.55,2.14 25.93,-6 a 6.49,6.49 0 0 0 -1.69,-8.12 c -3.34,-3 -8.11,-2.44 -12.19,-1.91 -0.94,0.12 -1,1.62 0,1.5 3,-0.39 6.06,-0.83 8.9,0.3 7.57,3 3.4,9.39 -1.52,11.64 -5.71,2.62 -13.05,2.65 -19,1.11 a 0.75,0.75 0 0 0 -0.4,1.44 z"
             inkscape:connector-curvature="0" />
          <path
             id="path1478"
             transform="translate(-27.31,-29.29)"
             d="m 286.33,363.51 a 44.8,44.8 0 0 0 20.34,-4 c 0.88,-0.4 0.12,-1.69 -0.76,-1.29 A 43.24,43.24 0 0 1 286.33,362 c -1,0 -1,1.46 0,1.5 z"
             inkscape:connector-curvature="0" />
        </g>
        <g
           id="head">
          <path
             id="path1481"
             transform="translate(-27.31,-29.29)"
             d="m 255,166.69 a 14.29,14.29 0 0 0 -2.73,7.09 c -0.28,5.26 3.34,7.27 3.62,14.06 0,0.74 0,0.26 -0.59,6.46 -0.59,6.2 -0.87,9.49 -0.78,10.64 0.58,7.14 5.9,12.18 6.74,12.95 6.75,6.23 15.28,5.75 17.95,5.6 a 22.82,22.82 0 0 0 12,-3.64 c 3.52,-2.4 5.43,-5.64 9.26,-12.14 a 87.28,87.28 0 0 0 5.35,-10.81 c 2.31,-5.58 3.47,-8.37 3.78,-12 0.35,-4.09 -0.73,-4.84 -2.51,-13.09 a 123.64,123.64 0 0 1 -2.82,-21.21 c -0.33,-8.73 0.79,-9.57 -0.49,-11 -6.78,-7.53 -40.72,14.3 -48.78,27.09 z"
             inkscape:connector-curvature="0" />
          <path
             id="path1483"
             style="fill:#f9f9f9"
             transform="translate(-27.31,-29.29)"
             d="m 269.72,176.29 c 1.86,1 3.6,2 5.23,3.06 l 0.72,3.07 A 78.88,78.88 0 0 1 298,162 26,26 0 0 1 296.07,151.6 c 0.11,-3.9 1.08,-5 0.35,-6.63 -2,-4.34 -12.92,-4.29 -20.32,-2.4 -11.69,3 -19,11.67 -22.44,16.66 q 1.26,5.58 2.51,11.17 a 86.07,86.07 0 0 1 13.55,5.89 z"
             inkscape:connector-curvature="0" />
          <path
             id="path1485"
             style="fill:#f9f9f9"
             transform="translate(-27.31,-29.29)"
             d="m 304.34,144.69 a 88,88 0 0 0 0.12,11.42 89.43,89.43 0 0 0 6.54,27.25 l 2.86,-0.45 A 75.79,75.79 0 0 1 309,161 a 7.83,7.83 0 0 0 5.7,-0.88 c 3.26,-2.09 3.35,-6.3 3.38,-8 0,-2 0.11,-5.17 -2.08,-6.71 -2.19,-1.54 -5.73,-0.94 -8.64,1.54 z"
             inkscape:connector-curvature="0" />
          <path
             id="path1487"
             style="opacity:0.25;fill:#9e9e9e"
             transform="translate(-27.31,-29.29)"
             d="m 291.63,149.31 c -0.32,0.48 -1.12,1.9 -0.4,6.22 a 29.19,29.19 0 0 0 3.25,9.26 l 3.9,-2.12 a 23.87,23.87 0 0 1 -1.55,-4.08 24.73,24.73 0 0 1 -0.19,-12 c -0.87,0.07 -3.64,0.53 -5.01,2.72 z"
             inkscape:connector-curvature="0" />
          <path
             id="path1489"
             style="opacity:0.2;fill:#9e9e9e"
             transform="translate(-27.31,-29.29)"
             d="m 310.05,145.27 a 9.62,9.62 0 0 1 2.75,4.7 c 0.91,3.87 -0.87,8.17 -4.5,11.12 a 5.93,5.93 0 0 0 3.15,0.67 c 2.81,-0.21 4.49,-2.59 5.15,-3.51 2.59,-3.66 1.68,-7.86 1.43,-9 a 5.76,5.76 0 0 0 -1.51,-3.36 c -2.28,-2.11 -6.13,-0.75 -6.47,-0.62 z"
             inkscape:connector-curvature="0" />
          <path
             id="path1491"
             transform="translate(-27.31,-29.29)"
             d="m 252.89,159.44 q 1.08,5.64 2.52,11.18 a 0.75208045,0.75208045 0 0 0 1.45,-0.4 q -1.44,-5.55 -2.52,-11.17 c -0.18,-1 -1.63,-0.55 -1.45,0.39 z"
             inkscape:connector-curvature="0" />
          <path
             id="path1493"
             transform="translate(-27.31,-29.29)"
             d="m 270.52,161.64 q 1.8,10.58 4.43,21 a 0.76,0.76 0 0 0 1.37,0.18 41.77,41.77 0 0 0 3.63,-8.17 c 0.29,-0.92 -1.16,-1.31 -1.45,-0.39 A 39.77,39.77 0 0 1 275,182 l 1.38,0.18 q -2.64,-10.41 -4.43,-21 c -0.16,-1 -1.61,-0.55 -1.45,0.4 z"
             inkscape:connector-curvature="0" />
          <path
             id="path1495"
             transform="translate(-27.31,-29.29)"
             d="m 260.12,164.89 c 0.74,2.42 2.81,4.54 5.49,4.45 a 4.69,4.69 0 0 0 4.47,-4.39 c 0.06,-1 -1.44,-1 -1.5,0 a 3.18,3.18 0 0 1 -3.41,2.88 4.39,4.39 0 0 1 -3.6,-3.34 c -0.28,-0.92 -1.73,-0.53 -1.45,0.4 z"
             inkscape:connector-curvature="0" />
          <path
             id="path1497"
             transform="translate(-27.31,-29.29)"
             d="m 279.93,162.72 c 4.59,4.91 11.64,0.63 11.7,-5.39 a 0.75,0.75 0 0 0 -1.5,0 c 0,4.74 -5.47,8.26 -9.14,4.33 -0.66,-0.7 -1.72,0.36 -1.06,1.06 z"
             inkscape:connector-curvature="0" />
          <path
             id="path1499"
             transform="translate(-27.31,-29.29)"
             d="m 254.38,166.31 a 15.87,15.87 0 0 0 -2.69,11.6 c 1,6 5.42,10.18 5.55,16.64 a 0.75,0.75 0 0 0 1.5,0 22.16,22.16 0 0 0 -2.92,-10.55 c -3.11,-5.77 -3.93,-11.26 -0.14,-17 0.53,-0.8 -0.76,-1.56 -1.3,-0.76 z"
             inkscape:connector-curvature="0" />
          <path
             id="path1501"
             transform="translate(-27.31,-29.29)"
             d="m 254.91,186.08 c 1,6.54 -2.12,12.8 -1,19.39 a 23.44,23.44 0 0 0 6.35,12.53 c 7,7.09 17.77,8.14 26.51,3.92 0.87,-0.42 0.11,-1.71 -0.76,-1.29 -10.08,4.86 -22.41,1.77 -28.08,-8.17 -2.82,-4.94 -3.22,-10.12 -2.31,-15.62 0.62,-3.84 1.35,-7.23 0.74,-11.11 -0.15,-1 -1.6,-0.55 -1.45,0.4 z"
             inkscape:connector-curvature="0" />
          <path
             id="path1503"
             transform="translate(-27.31,-29.29)"
             d="m 255.37,171.43 c 7.05,0.89 12.95,4.74 18.72,8.62 0.8,0.54 1.56,-0.75 0.76,-1.29 -6,-4.07 -12.12,-7.9 -19.48,-8.83 -1,-0.13 -1,1.38 0,1.5 z"
             inkscape:connector-curvature="0" />
          <path
             id="path1505"
             transform="translate(-27.31,-29.29)"
             d="m 278.8,178.86 c 5,-6.77 13,-11.23 19.75,-16.08 0.78,-0.56 0,-1.86 -0.75,-1.3 -7,5 -15.11,9.63 -20.3,16.62 -0.57,0.78 0.73,1.52 1.3,0.76 z"
             inkscape:connector-curvature="0" />
          <path
             id="path1507"
             transform="translate(-27.31,-29.29)"
             d="m 298.68,161.82 a 26.5,26.5 0 0 1 -0.88,-16.8 0.75,0.75 0 0 0 -1.44,-0.4 27.92,27.92 0 0 0 0.87,17.6 c 0.35,0.89 1.8,0.5 1.45,-0.4 z"
             inkscape:connector-curvature="0" />
          <path
             id="path1509"
             transform="translate(-27.31,-29.29)"
             d="m 303.68,140.57 c -0.24,9.77 -0.45,19.7 2.06,29.23 1.25,4.75 3.18,9.34 3.15,14.33 a 23.89,23.89 0 0 1 -6.58,16 c -0.66,0.71 0.4,1.77 1.06,1.06 a 25.52,25.52 0 0 0 6.18,-23.66 c -1.43,-6 -3.42,-11.59 -4.06,-17.81 a 149.7,149.7 0 0 1 -0.31,-19.18 0.75,0.75 0 0 0 -1.5,0 z"
             inkscape:connector-curvature="0" />
          <path
             id="path1511"
             transform="translate(-27.31,-29.29)"
             d="m 303.18,199.42 c -2.67,3.84 -3,8.41 -5,12.53 a 15.9,15.9 0 0 1 -12.13,8.61 c -0.95,0.15 -0.55,1.59 0.4,1.45 a 17.36,17.36 0 0 0 11,-6.18 c 3.72,-4.61 3.64,-10.86 7,-15.65 0.55,-0.79 -0.75,-1.54 -1.3,-0.76 z"
             inkscape:connector-curvature="0" />
          <path
             id="path1513"
             transform="translate(-27.31,-29.29)"
             d="m 308.06,148 a 4.87,4.87 0 0 1 6.69,-2.57 c 2.59,1.06 2.83,4.54 2.52,6.85 -0.49,3.56 -2.4,9.29 -7.18,8.64 -0.94,-0.13 -1.35,1.32 -0.39,1.45 6.79,0.93 10.4,-8.39 8.91,-14 a 6.25,6.25 0 0 0 -12,-0.81 c -0.38,0.89 1.07,1.28 1.44,0.4 z"
             inkscape:connector-curvature="0" />
          <path
             id="path1515"
             transform="translate(-27.31,-29.29)"
             d="m 308.25,161 a 85.06,85.06 0 0 0 4.45,21.16 c 0.31,0.91 1.76,0.52 1.44,-0.39 A 83.86,83.86 0 0 1 309.75,161 c -0.08,-1 -1.58,-1 -1.5,0 z"
             inkscape:connector-curvature="0" />
          <path
             id="path1517"
             transform="translate(-27.31,-29.29)"
             d="m 262.86,160.32 a 7.72,7.72 0 0 1 4.19,-1.1 0.75,0.75 0 0 0 0,-1.5 9.19,9.19 0 0 0 -4.94,1.3 0.75041655,0.75041655 0 0 0 0.75,1.3 z"
             inkscape:connector-curvature="0" />
          <path
             id="path1519"
             transform="translate(-27.31,-29.29)"
             d="m 280.5,155.74 a 10.39,10.39 0 0 1 6.94,-1 c 0.95,0.19 1.35,-1.25 0.4,-1.44 a 12,12 0 0 0 -8.09,1.15 c -0.86,0.45 -0.1,1.74 0.75,1.3 z"
             inkscape:connector-curvature="0" />
          <path
             id="path1521"
             style="fill:#222831;fill-opacity:1"
             transform="translate(-27.31,-29.29)"
             d="m 248.87,143.34 q -18.74,17.17 -16,21.82 4.82,8.25 77.25,-22.93 c 0.33,-1.36 3.87,-16.64 -6.68,-28.49 -8.71,-9.78 -22.38,-12 -33,-8.46 -14.37,4.85 -23.93,20.72 -21.57,38.06 z"
             inkscape:connector-curvature="0" />
        </g>
      </g>
    </g>
  </g>
</svg>
